<?xml version="1.0" encoding="utf-8"?>
<!-- Generator: Adobe Illustrator 19.2.1, SVG Export Plug-In . SVG Version: 6.00 Build 0)  -->
<svg version="1.1" id="Calque_1" xmlns="http://www.w3.org/2000/svg" xmlns:xlink="http://www.w3.org/1999/xlink" x="0px" y="0px"
	 viewBox="0 0 434.7 300" style="enable-background:new 0 0 434.7 300;" xml:space="preserve">
<style type="text/css">
	.st0{opacity:0.85;}
	.st1{fill:#1D1D1D;}
	.st2{display:none;}
	.st3{display:inline;fill:#FFFFFF;}
	.st4{display:inline;}
</style>
<g>
	<g>
		<g>
			<g class="st0">
				<g>
					<path class="st1" d="M262.7,252.9c-0.6,0-1.3,0-2-0.1c0.3,0,0.7,0.1,1,0.2C262.1,253.1,262.3,253,262.7,252.9z"/>
					<path class="st1" d="M258.9,252.8c-0.1,0-0.2,0-0.3,0c-0.1,0-0.2,0-0.3,0L258.9,252.8z"/>
					<path class="st1" d="M255.5,252.8c0.6,0,1.2,0,1.7,0C256.7,252.8,256.2,252.8,255.5,252.8z"/>
					<path class="st1" d="M258.2,253c-0.2-0.1-0.3-0.2,0-0.2c0,0,0,0,0,0c-0.3,0-0.7,0-1,0.1C257.6,252.9,257.9,252.9,258.2,253z"/>
					<path class="st1" d="M258.2,253c0.2,0.1,0.5,0.1,0.6,0.2C258.6,253.1,258.4,253.1,258.2,253z"/>
					<path class="st1" d="M257.3,254.8c-0.3,0.1-0.3-0.5-0.9-0.3c-1.6,0.2-3,0.5-4.4,0.5c-0.7,0.2-1.7-0.5-2.4-0.3
						c-1.6,0.2-5.7,1.2-3.3,1.1c3.6-0.2,6-0.5,9.2-0.7c2.6-0.3,5.2-0.7,7.9-0.9c0.8,0,1.5,0,2.2,0c-0.9,0-1.9-0.1-2.9-0.1
						C261.2,254,259.5,254.6,257.3,254.8z"/>
					<path class="st1" d="M277,253.4c-0.3,0-1,0-1,0c-1.5-0.1-3.1-0.2-4.7-0.1c0.2,0,0.5,0.1,0.7,0.1c0.9,0,1-0.1,0.2-0.1
						c1.9,0.2,3.6,0.2,5.4,0.2C277.5,253.5,277.6,253.4,277,253.4z"/>
					<path class="st1" d="M278.7,253.5c-0.4,0-0.7,0-1.1,0l0,0C278,253.5,278.4,253.5,278.7,253.5L278.7,253.5z"/>
					<path class="st1" d="M248.3,253.3c-4.5,0-8.8,0-12.9-0.1c-0.3,0.1-0.5,0.3-1,0.2c-0.3-0.1-0.7-0.2-1-0.3c-0.6,0-1.2,0-1.8,0
						c-0.2,0-0.4,0-0.6,0.1c0,0,0,0,0,0c-0.3,0.1-0.2,0.2,0,0.3c0.2,0.1,0.5,0.2,0.6,0.3c-0.1-0.1-0.4-0.2-0.6-0.3
						c-0.3-0.1-0.6-0.2-1-0.2c-0.6,0-1.1,0.1-1.7,0c0.7-0.1,1.2-0.1,1.7,0c0.4,0,0.7-0.1,1-0.1c0.1,0,0.2,0,0.3-0.1
						c-1.4,0-2.8-0.1-4.1-0.1c-0.3,0-0.6,0-0.9,0.1c-1,0.1-2,0.2-2.6-0.2c-0.2,0-0.5,0-0.7,0l0.1,0.1c-0.1,0-0.2,0-0.3-0.1
						c-1,0-2.1-0.1-3.1-0.1c-0.7,0.1-1.4,0.3-2.1,0.4c0,0-0.5-0.2-0.7-0.4c-0.3,0.2-0.7,0.3-1.2,0.4c0.6,0.2,1.1,0.5,1.6,0.6
						c0.7,0.4,1.6-0.8,2.4,0c-0.8-0.7-1.7,0.4-2.4,0c-0.5-0.2-1-0.4-1.6-0.6c-1,0.1-2.3,0-3.3-0.3c1.3-0.3,2.4,0,3.3,0.3
						c0.5-0.1,0.9-0.2,1.2-0.4c0.2,0.1,0.7,0.4,0.7,0.4c0.7-0.1,1.4-0.3,2.1-0.4c-2-0.1-4.1-0.1-6.2-0.2c-6.8-0.2-13.3-0.2-19.9-0.1
						c-6.6,0.1-13.3,0.3-20.3,0.4c-7.6,0.1-15,0.1-22.2-0.4c-7.2-0.5-14.1-1.3-20.9-1.6c-3.4-0.2-6.9-0.2-10.4-0.3
						c-3.5-0.1-7-0.3-10.7-0.4c-5.6-0.2-15.9,1.1-21.3,2.1c-3.6,0.8-4.5,1-4.4,1.1c0.1,0.1,1.1,0.2,1.3,0.2c2.2,0.2,4.2,0.5,6.7,0.7
						c2.5,0.2,5.7,0.4,10.2,1.1c-3.1-0.5-1.9-0.6,0.7-0.6c2.6,0,6.7,0.3,9.6,1.1c4.2,1.3,9.3,1.6,14.6,1.4c5.3-0.2,10.9-1,16.1-1.3
						c2.6-0.2,5.3-0.6,8.4-0.8c8-0.5,15.7-0.4,23.6,0.2c7.8,0.6,15.8,1.4,24.2,1.8c4.5,0.2,8.4-0.3,12.2-0.6c2.7,0,5.7,0.4,7.9,0.4
						c3.5,0.1,6.5-0.2,9.4-0.6c-3.2,0.2-5.6,0.4-9.2,0.4c-2.4,0,1.7-0.9,3.3-1.2c0.7-0.2,1.8,0.7,2.4,0.5c1.5,0,2.8-0.3,4.4-0.6
						c0.7-0.2,0.6,0.6,0.9,0.5c2.2-0.2,3.8-1.2,5.2-1c1.1,0.1,2,0.2,2.9,0.3c0.6,0,1.2,0.1,1.8,0c0.4-0.1,0.8-0.1,1.2-0.2
						c-0.3-0.2-0.4-0.5-0.5-0.7c0.6,0,1.4,0.2,2,0.2c-0.6,0-1.4-0.2-2-0.2c0.1,0.3,0.2,0.5,0.5,0.7c2.9-0.5,6.2-0.9,9.2-1.2l0-0.1
						c-1.8,0.1-3.5,0.1-5.4-0.4c0.8,0.1,0.7,0.3-0.2,0.4c-0.2-0.1-0.5-0.2-0.7-0.3c1.6-0.2,3.2-0.4,4.7,0.1c0,0,0.7-0.1,1-0.2
						c0.5,0.1,0.5,0.3,0.6,0.4c0.3,0,0.7,0,1.1-0.1C250.6,253.7,248.3,253.3,248.3,253.3z"/>
					<path class="st1" d="M229.9,253.2c0.2,0,0.5,0,0.9-0.1c-1.2,0-2.3-0.1-3.5-0.1C227.8,253.4,228.8,253.3,229.9,253.2z"/>
				</g>
			</g>
		</g>
	</g>
</g>
<g class="st2">
	<circle class="st3" cx="216.5" cy="101.2" r="29.9"/>
	<g class="st4">
		<g>
			<g class="st0">
				<g>
					<path class="st1" d="M242.8,86.2c-0.3-0.6-0.6-1.1-0.9-1.7c0.1,0.3,0.3,0.6,0.4,0.9C242.5,85.8,242.6,85.9,242.8,86.2z"/>
					<path class="st1" d="M241,83c-0.1-0.1-0.1-0.2-0.2-0.3c-0.1-0.1-0.1-0.2-0.2-0.2L241,83z"/>
					<path class="st1" d="M238.9,80.4c0.4,0.5,0.7,0.9,1.1,1.3C239.7,81.3,239.3,80.9,238.9,80.4z"/>
					<path class="st1" d="M240.4,82.6c-0.1-0.2-0.1-0.3,0.1-0.1c0,0,0,0,0,0c-0.2-0.3-0.4-0.5-0.6-0.8
						C240.2,82,240.3,82.3,240.4,82.6z"/>
					<path class="st1" d="M240.4,82.6c0.1,0.2,0.2,0.5,0.3,0.6C240.6,83,240.5,82.8,240.4,82.6z"/>
					<path class="st1" d="M238.8,82.8c-0.3-0.2,0.1-0.4-0.4-0.8c-0.6-0.5-1.1-0.9-1.7-1.3c-0.6-0.4-1.1-0.7-1.7-1.2
						c-0.5-0.3-1-1.3-1.6-1.6c-0.3-0.2-0.8-0.4-1.3-0.6c-0.5-0.2-1-0.3-1.5-0.4c-0.8-0.2-1.3-0.2-0.3,0.3c2.9,1.4,4.8,2.5,7.1,4.5
						C237.9,82.1,238.4,82.5,238.8,82.8l1.3,1.4c0.2,0.2,0.4,0.4,0.6,0.7l0.6,0.7c0.4,0.5,0.8,1,1.1,1.5c0.3,0.6,0.6,1.2,0.9,1.8
						c-0.2-0.4-0.4-0.8-0.6-1.2c-0.2-0.4-0.4-0.8-0.7-1.3c-0.3-0.6-0.8-1.2-1.3-1.8C240.2,84.1,239.5,83.5,238.8,82.8z"/>
					<path class="st1" d="M246.4,99.5c0-0.3-0.1-1-0.1-1c0-0.7-0.2-1.5-0.2-2.2c-0.1-0.4-0.1-0.8-0.2-1.1c-0.1-0.4-0.2-0.7-0.3-1.1
						c0,0.2,0.1,0.4,0.1,0.7c0.2,0.9,0.2,1,0.1,0.2c0.1,0.9,0.2,1.8,0.4,2.6c0.1,0.8,0.1,1.7,0.2,2.6
						C246.4,100,246.4,100,246.4,99.5z"/>
					<path class="st1" d="M246.5,101.1c0-0.3,0-0.7-0.1-1l0,0C246.4,100.5,246.4,100.8,246.5,101.1L246.5,101.1z"/>
					<path class="st1" d="M233.3,76.1c-3.7-2.4-7.6-4-11.5-4.8c-0.3,0.1-0.6,0.2-1,0.1c-0.3-0.2-0.6-0.3-0.9-0.4
						c-0.6-0.1-1.2-0.1-1.8-0.2c-0.2,0-0.4,0-0.6,0l0,0c-0.3,0.1-0.2,0.2,0,0.3c0.2,0.1,0.4,0.2,0.6,0.3c-0.1-0.1-0.4-0.2-0.6-0.3
						c-0.3-0.1-0.6-0.2-0.9-0.3c-0.5,0.1-1.1,0.1-1.7,0.1c0.6-0.1,1.2-0.2,1.7-0.1c0.3,0,0.7,0,1-0.1c0.1,0,0.2,0,0.3-0.1
						c-1.3-0.2-2.7-0.1-4,0c-0.3,0-0.6,0.1-0.8,0.2c-1,0.3-1.9,0.5-2.6,0.2c-0.2,0.1-0.5,0.1-0.7,0.2l0.2,0c-0.1,0-0.2,0-0.3,0
						c-1,0.2-2,0.4-3,0.8c-0.6,0.4-1.2,0.8-1.8,1.1c0,0-0.1,0-0.3,0c-0.2,0-0.4,0-0.5,0c-0.2,0.3-0.5,0.6-0.9,0.8
						c0.6,0,1.1,0,1.6-0.1c0.7,0.1,1.1-1.2,2.1-0.8c-1-0.4-1.4,0.9-2.1,0.8c-0.5,0.1-1,0-1.6,0.1c-0.8,0.5-1.9,1-3,1.3
						c0.5-0.5,1-0.8,1.5-1c0.5-0.2,1-0.2,1.5-0.3c0.4-0.3,0.7-0.5,0.9-0.8c0.1,0,0.3,0,0.5,0c0.2,0,0.3,0,0.3,0
						c0.6-0.3,1.2-0.7,1.8-1.1c-1,0.3-1.9,0.6-2.9,1.1c-0.9,0.4-1.9,0.8-2.8,1.4c-3,1.6-5.6,3.7-7.7,6.2c-2.2,2.5-3.9,5.3-5.2,8.3
						c-2.4,6.1-2.9,13-1,19.7c2,7.3,6.4,13.3,12,17.8c2.8,2.2,5.9,4,9.3,5.2c1.7,0.6,3.4,1,5.2,1.4l2.7,0.3c0.9,0.1,1.8,0,2.7,0
						c3.6-0.1,7.2-0.8,10.7-2.2c3.4-1.4,6.6-3.5,9.3-6.2c2.1-2.1,4.3-5.7,5.6-9.5c1.4-3.8,2-7.6,2.2-10.3c0.3-7-0.2-3.4-0.2-3.1
						c-0.1,0.6-0.1,1.1-0.2,1.6c0,0.5-0.2,1-0.3,1.5c-0.1,0.5-0.2,1-0.3,1.6c-0.1,0.5-0.3,1.1-0.5,1.7c-0.7,2.3-1.8,5.2-4.7,8.3
						c0.9-1.1,1.3-1.4,1.2-1.2c-0.1,0.2-0.5,1-1.2,2c-0.4,0.5-0.8,1-1.3,1.6c-0.5,0.6-1.1,1.1-1.7,1.6c-0.6,0.5-1.3,1-2,1.4
						c-0.3,0.2-0.7,0.4-1,0.6c-0.3,0.2-0.7,0.3-1,0.4c-0.5,0.1-1,0.3-1.4,0.5c-0.5,0.2-1,0.3-1.5,0.4c-0.5,0.1-1,0.3-1.5,0.5
						c-0.5,0.1-1,0.3-1.5,0.4c-1,0.4-2,0.6-3.1,1c-0.5,0.2-1.1,0.3-1.6,0.4c-0.5,0.1-1.1,0.3-1.6,0.4c-1.1,0.2-2.2,0.5-3.4,0.6
						c-0.6,0.1-1.1,0.2-1.7,0.2l-1.8,0.1c-0.6,0.1-1.2,0-1.8,0c-0.6,0-1.2-0.1-1.8-0.1c-0.6-0.1-1.2-0.2-1.7-0.3l-0.9-0.1
						c-0.3-0.1-0.6-0.2-0.8-0.2c-0.5-0.2-1.1-0.3-1.7-0.4c-0.6-0.2-1.1-0.4-1.7-0.6c-0.3-0.1-0.6-0.2-0.9-0.3
						c-0.3-0.1-0.6-0.3-0.9-0.4c-0.6-0.3-1.2-0.6-1.8-0.9c-6.3-3.7-10.6-10.4-11.5-17.4c-0.5-3.5-0.1-7.1,0.8-10.5
						c0.9-3.4,2.5-6.6,4.6-9.5c2.2-3.1,4.2-5.7,6.7-7.8c0.5-0.4,1-0.6,1.5-0.9c0.5-0.3,1-0.6,1.6-0.8c1.1-0.4,2.1-0.8,3-1.1
						c1.4-0.5,2.7-0.9,4-1.3c1.3-0.3,2.5-0.7,3.8-0.9c-1.4,0.1-2.6,0.5-3.8,0.7c-0.6,0.2-1.2,0.4-1.8,0.6c-0.6,0.2-1.3,0.4-2,0.7
						c-1,0.3-0.7,0-0.1-0.5c0.3-0.3,0.8-0.6,1.2-0.8c0.5-0.2,0.9-0.5,1.2-0.6c0.3-0.2,0.7-0.1,1.1,0c0.4,0.1,0.8,0.2,1.1,0.1
						c0.6-0.1,1.2-0.3,1.9-0.5c0.6-0.1,1.3-0.3,2-0.5c0.6-0.2,0.5,0.6,0.8,0.5c0.9,0,1.8-0.3,2.6-0.5c0.8-0.2,1.5-0.2,2.1,0
						c0.9,0.2,1.7,0.6,2.5,0.9c0.5,0.2,1,0.3,1.5,0.5c0.3,0.1,0.7,0.1,1.1,0.2c-0.2-0.3-0.2-0.6-0.2-0.9c0.5,0.2,1.1,0.6,1.6,0.8
						c-0.5-0.2-1.1-0.6-1.6-0.8c0,0.3,0,0.6,0.2,0.9c2.6,0.5,5.6,1.5,8,3.1l0-0.1c-1.4-1-2.8-1.8-4.1-3c0.3,0.2,0.4,0.4,0.4,0.4
						c-0.1,0-0.3,0-0.7-0.2l-0.5-0.6c0.4,0.1,0.7,0.3,1.1,0.4c0.4,0.1,0.7,0.3,1,0.5c0.6,0.4,1.3,0.8,1.7,1.4c0,0,0.6,0.3,0.9,0.4
						c0.3,0.4,0.2,0.5,0.2,0.7c0.3,0.2,0.6,0.4,0.8,0.6C234.9,77.8,233.3,76.1,233.3,76.1z"/>
					<path class="st1" d="M216.5,70.9c0.2,0,0.5,0,0.8,0L216.5,70.9l-0.9-0.1l-1.7,0C214.6,71.2,215.5,71.1,216.5,70.9z"/>
				</g>
			</g>
		</g>
	</g>
</g>
<g class="st2">
	<polyline class="st3" points="215.7,131 215.7,190 258.6,215.9 	"/>
	<g class="st4">
		<g>
			<g class="st0">
				<g>
					<path class="st1" d="M251.7,210.9l-0.9-0.6c0.1,0.1,0.3,0.2,0.4,0.4C251.3,210.8,251.5,210.8,251.7,210.9z"/>
					<path class="st1" d="M249.9,209.7c-0.1,0-0.1-0.1-0.2-0.1c-0.1,0-0.1,0-0.2-0.1L249.9,209.7z"/>
					<path class="st1" d="M248.3,208.8c0.3,0.2,0.6,0.4,0.8,0.5C248.9,209.1,248.6,208.9,248.3,208.8z"/>
					<path class="st1" d="M249.5,209.7c-0.1-0.1-0.1-0.2,0.1-0.1l0,0c-0.2-0.1-0.3-0.2-0.5-0.3C249.2,209.4,249.4,209.5,249.5,209.7
						z"/>
					<path class="st1" d="M249.5,209.7c0.1,0.1,0.2,0.2,0.2,0.3C249.7,209.9,249.6,209.8,249.5,209.7z"/>
					<path class="st1" d="M248.5,210.5c-0.2-0.1,0-0.3-0.3-0.5c-0.8-0.4-1.6-0.6-2.3-1c-0.4-0.1-0.7-0.8-1-0.9
						c-0.8-0.3-3.1-0.9-1.9-0.3c1.8,0.9,3,1.4,4.6,2.2c1.4,0.6,2.7,1.1,4.1,1.8c0.4,0.2,0.7,0.4,1,0.6c-0.4-0.3-0.9-0.6-1.4-0.9
						C250.6,211.1,249.6,211,248.5,210.5z"/>
					<path class="st1" d="M258.4,215.3c-0.2-0.1-0.5-0.3-0.5-0.3c-0.7-0.5-1.4-1-2.2-1.4l0.3,0.3c0.4,0.3,0.5,0.3,0.1,0
						c0.8,0.6,1.7,1.1,2.5,1.6C258.6,215.5,258.6,215.5,258.4,215.3z"/>
					<path class="st1" d="M259.1,215.9c-0.2-0.1-0.3-0.2-0.5-0.3l0,0C258.8,215.7,259,215.8,259.1,215.9L259.1,215.9z"/>
					<path class="st1" d="M244.6,207c-2.2-1.3-4.2-2.5-6.1-3.8c-0.2,0-0.4,0-0.5-0.2c-0.1-0.2-0.2-0.3-0.4-0.4l-0.9-0.5
						c-0.1,0-0.2-0.1-0.3-0.2l0,0c-0.2,0-0.2,0-0.1,0.2c0.1,0.1,0.2,0.2,0.2,0.3c0-0.1-0.1-0.2-0.2-0.3c-0.1-0.1-0.2-0.3-0.4-0.4
						c-0.3-0.1-0.6-0.3-0.8-0.5c0.3,0.1,0.6,0.3,0.8,0.5c0.2,0.1,0.4,0.2,0.5,0.2c0.1,0,0.1,0,0.2,0c-0.6-0.4-1.3-0.8-1.9-1.3
						c-0.2-0.1-0.3-0.2-0.4-0.2c-0.5-0.2-1-0.5-1.2-0.8l-0.3-0.2c0,0,0,0.1,0,0.1c0,0-0.1-0.1-0.1-0.1c-0.5-0.3-1-0.6-1.5-1
						c-0.4-0.1-0.8-0.2-1.1-0.3c0,0-0.1-0.3-0.2-0.4c-0.2,0-0.4,0-0.7-0.1c0.2,0.3,0.4,0.6,0.5,0.8c0.2,0.4,1,0,1.2,0.7
						c-0.1-0.6-1-0.2-1.2-0.7c-0.2-0.2-0.3-0.5-0.5-0.8c-0.5-0.2-1.1-0.7-1.5-1.1c0.7,0.2,1.1,0.7,1.5,1.1c0.2,0.1,0.5,0.1,0.7,0.1
						c0.1,0.1,0.2,0.4,0.2,0.4c0.4,0.1,0.8,0.2,1.1,0.3c-1-0.6-1.9-1.2-2.9-1.9c-3.2-2.1-6.3-4-9.5-5.8l-1.2-0.7l-0.4-0.2l-0.2-0.1
						c-0.1,0,0-0.2,0-0.2c0-0.8,0-1.7-0.1-2.5c0-1.9-0.1-3.8-0.2-5.8c-0.1-4.3-0.1-8.4,0.3-12.4c0.3-4,0.9-7.8,1.1-11.7
						c0.1-1.9,0.2-3.8,0.2-5.8c0.1-1.9,0.2-3.9,0.3-6c0.2-3.1-0.8-8.9-1.4-11.9c-0.5-2-0.7-2.5-0.7-2.4c0,0-0.1,0.6-0.1,0.7
						c-0.2,1.2-0.4,2.3-0.5,3.8c-0.2,1.4-0.2,3.2-0.7,5.7c0.3-1.7,0.4-1.1,0.4,0.4c0,1.5-0.2,3.8-0.8,5.4c-0.8,2.3-1.1,5.2-1,8.2
						c0.1,3,0.7,6.1,0.9,9c0.1,1.4,0.4,3,0.5,4.7c0.3,4.5,0.3,8.8-0.1,13.2c-0.2,2.2-0.4,4.4-0.7,6.6c0,0.2-0.1,0.9-0.1,1.4
						l-0.1,0.8l0,0.4c0.1,0.1,0.2,0.1,0.3,0.2c0.5,0.3,0.9,0.6,1.4,0.9l0.3,0.2l0.2,0.1l0.3,0.3c0.9,0.7,1.9,1.3,2.8,2
						c2.1,1.4,4.1,2.2,6,3.2c1.3,0.8,2.6,1.9,3.6,2.5c1.7,1,3.2,1.8,4.7,2.4c-1.6-0.8-2.8-1.4-4.5-2.4c-1.2-0.7,1.1-0.1,2,0.3
						c0.4,0.1,0.6,0.9,1,1c0.7,0.4,1.5,0.6,2.3,1c0.4,0.1,0.1,0.5,0.3,0.6c1.1,0.5,2.2,0.4,2.8,0.9c0.5,0.4,0.9,0.7,1.3,1
						c0.3,0.2,0.5,0.4,0.9,0.5c0.2,0.1,0.4,0.1,0.6,0.2c-0.1-0.2,0-0.4,0-0.6c0.3,0.2,0.6,0.5,0.9,0.7c-0.3-0.2-0.6-0.5-0.9-0.7
						c0,0.2,0.1,0.4,0.2,0.6c1.5,0.6,3,1.3,5,2v0c-1-0.5-1.9-1-2.6-1.8c0.3,0.3,0.1,0.4-0.3,0.2l-0.3-0.4c0.8,0.3,1.6,0.7,2.2,1.4
						c0,0,0.4,0.1,0.6,0.2c0.2,0.2,0.1,0.3,0.1,0.4c0.2,0.1,0.3,0.2,0.5,0.3C245.6,207.9,244.6,207,244.6,207z"/>
					<path class="st1" d="M235.9,201.6c0.1,0.1,0.3,0.1,0.4,0.2l-1.6-1.1C234.8,201.2,235.4,201.4,235.9,201.6z"/>
				</g>
			</g>
		</g>
	</g>
</g>
<g class="st2">
	<line class="st3" x1="216.2" y1="190" x2="175.9" y2="220.9"/>
	<g class="st4">
		<g>
			<g class="st0">
				<g>
					<path class="st1" d="M179.5,218.7l0.4-0.3c-0.1,0-0.2,0-0.3,0.1C179.5,218.5,179.5,218.6,179.5,218.7z"/>
					<polygon class="st1" points="180.3,218.2 180.4,218.2 180.4,218.1 					"/>
					<path class="st1" d="M181,217.6c-0.1,0.1-0.3,0.2-0.4,0.3C180.7,217.8,180.8,217.8,181,217.6z"/>
					<path class="st1" d="M180.3,218c0.1,0,0.1,0,0.1,0.1l0,0l0.2-0.2C180.5,217.9,180.4,218,180.3,218z"/>
					<path class="st1" d="M180.3,218c-0.1,0-0.2,0-0.2,0C180.2,218,180.3,218,180.3,218z"/>
					<path class="st1" d="M179.8,216.9c0-0.1,0.2,0.2,0.3,0c0.3-0.4,0.4-0.7,0.7-1c0.1-0.2,0.6,0,0.6-0.2c0.3-0.4,0.7-1.5,0.2-1.1
						c-0.7,0.7-1,1.2-1.6,1.8c-0.4,0.6-0.8,1.2-1.3,1.7c-0.1,0.1-0.3,0.2-0.4,0.4c0.2-0.1,0.4-0.3,0.6-0.4
						C179.3,217.9,179.4,217.3,179.8,216.9z"/>
					<path class="st1" d="M176.3,220.7c0.1-0.1,0.2-0.2,0.2-0.2c0.4-0.2,0.7-0.4,1-0.7l-0.2,0c-0.2,0.2-0.2,0.2,0,0.1
						c-0.5,0.2-0.8,0.5-1.2,0.8C176.1,220.8,176.2,220.8,176.3,220.7z"/>
					<path class="st1" d="M175.9,220.9c0.1-0.1,0.1-0.1,0.2-0.2l0,0L175.9,220.9L175.9,220.9z"/>
					<path class="st1" d="M182.3,216.2c0.9-0.7,1.8-1.4,2.7-2c0-0.1,0-0.3,0.1-0.3c0.1,0,0.2,0,0.3,0l0.4-0.3l0.1-0.1l0,0
						c0-0.1,0-0.1-0.1-0.2c-0.1,0-0.2,0-0.2,0c0.1,0,0.2,0,0.2,0c0.1,0,0.2,0,0.3,0c0.1-0.1,0.2-0.2,0.3-0.3
						c-0.1,0.2-0.2,0.2-0.3,0.3l-0.2,0.2l0,0.1l0.9-0.6c0.1-0.1,0.1-0.1,0.2-0.2c0.2-0.2,0.3-0.4,0.6-0.3l0.2-0.1c0,0,0,0-0.1,0
						c0,0,0.1,0,0.1,0l0.7-0.4c0.1-0.2,0.2-0.4,0.3-0.6c0,0,0.2,0.1,0.3,0.1c0-0.1,0-0.3,0.1-0.4c-0.2,0-0.4-0.1-0.6-0.1
						c-0.3-0.1,0,0.7-0.5,0.4c0.5,0.2,0.2-0.5,0.5-0.4c0.2,0,0.4,0.1,0.6,0.1c0.1-0.2,0.5-0.4,0.8-0.3c-0.1,0.4-0.5,0.4-0.8,0.3
						c-0.1,0.1-0.1,0.2-0.1,0.4c-0.1,0-0.3-0.1-0.3-0.1c-0.1,0.2-0.2,0.4-0.3,0.6c0.4-0.3,0.9-0.6,1.4-0.9c1.5-1,2.8-2,4.2-3.1
						c1.3-1.1,2.6-2.3,4-3.4c1.5-1.3,3-2.4,4.7-3.3c1.7-0.9,3.4-1.5,5-2.5c1.5-0.9,3-2,4.7-2.9c1.2-0.8,2.8-3.1,3.5-4.5
						c0.4-1,0.5-1.3,0.5-1.3c0,0-0.3,0.1-0.3,0.1c-0.6,0.2-1.1,0.4-1.7,0.7c-0.6,0.3-1.3,0.7-2.5,1c0.8-0.2,0.7,0,0.1,0.4
						c-0.6,0.4-1.5,0.9-2.4,0.9c-1.4,0-2.6,0.6-3.6,1.6c-1,1-1.8,2.3-2.8,3.2c-0.5,0.5-0.9,1.1-1.4,1.7c-1.5,1.5-3.1,2.7-4.9,3.6
						c-1.9,0.9-3.8,1.8-5.7,2.9c-1,0.6-1.6,1.5-2.3,2.2c-0.5,0.5-1.3,0.7-1.8,1c-0.8,0.5-1.3,1.1-1.7,1.8c0.6-0.6,1-1.1,1.7-1.7
						c0.5-0.4,0,0.8-0.2,1.1c-0.1,0.2-0.6-0.1-0.7,0.1c-0.3,0.2-0.4,0.6-0.7,1c-0.1,0.2-0.4-0.2-0.4-0.1c-0.4,0.4-0.3,1.2-0.7,1.4
						c-0.3,0.1-0.5,0.2-0.7,0.3c-0.1,0.1-0.3,0.2-0.4,0.3l-0.2,0.3c0.2,0.1,0.3,0.2,0.4,0.3c-0.1,0.1-0.4,0.1-0.5,0.2
						c0.1-0.1,0.4-0.1,0.5-0.2c-0.1-0.1-0.3-0.2-0.4-0.3c-0.4,0.7-0.9,1.4-1.4,2.1l0,0c0.3-0.3,0.7-0.6,1.3-0.7
						c-0.2,0-0.3-0.1-0.1-0.2l0.3,0.1c-0.2,0.4-0.5,0.7-1,0.7c0,0-0.1,0.2-0.1,0.3c-0.1,0-0.2-0.1-0.3-0.1c-0.1,0.1-0.1,0.1-0.2,0.2
						C181.6,216.4,182.3,216.2,182.3,216.2z"/>
					<path class="st1" d="M186.1,213.3c0,0.1-0.1,0.1-0.2,0.2l0.8-0.5C186.4,212.9,186.2,213.1,186.1,213.3z"/>
				</g>
			</g>
		</g>
	</g>
</g>
<g class="st2">
	<g class="st4">
		<g>
			<g class="st0">
				<g>
					<path class="st1" d="M242.7,160.3l-0.7-0.5c0.1,0.1,0.2,0.2,0.3,0.3C242.4,160.3,242.5,160.3,242.7,160.3z"/>
					<path class="st1" d="M241.4,159.3c0,0-0.1-0.1-0.1-0.1c0,0-0.1,0-0.1-0.1L241.4,159.3z"/>
					<path class="st1" d="M240.2,158.5c0.2,0.2,0.4,0.3,0.6,0.4C240.6,158.8,240.4,158.6,240.2,158.5z"/>
					<path class="st1" d="M241.1,159.3c0-0.1,0-0.2,0.1-0.1l0,0l-0.4-0.2C240.9,159,241,159.2,241.1,159.3z"/>
					<path class="st1" d="M241.1,159.3c0,0.1,0.1,0.2,0.2,0.3C241.2,159.4,241.1,159.4,241.1,159.3z"/>
					<path class="st1" d="M240.1,160.1c-0.1,0,0.1-0.3-0.2-0.4c-0.6-0.3-1.2-0.4-1.8-0.8c-0.3-0.1-0.4-0.7-0.7-0.8
						c-0.6-0.3-2.5-0.7-1.6-0.2c1.4,0.7,2.3,1.2,3.5,1.8c1.1,0.5,2.1,0.9,3.1,1.4c0.3,0.2,0.5,0.3,0.8,0.5c-0.3-0.2-0.6-0.5-1-0.8
						C241.7,160.5,240.9,160.5,240.1,160.1z"/>
					<path class="st1" d="M247.5,164.1c-0.1-0.1-0.4-0.2-0.4-0.2c-0.5-0.4-1-0.8-1.6-1.2l0.2,0.2c0.3,0.2,0.4,0.2,0.1,0
						c0.6,0.5,1.2,1,1.8,1.4C247.7,164.2,247.7,164.2,247.5,164.1z"/>
					<path class="st1" d="M248.1,164.5c-0.1-0.1-0.3-0.2-0.4-0.3l0,0C247.9,164.3,248,164.4,248.1,164.5L248.1,164.5z"/>
					<path class="st1" d="M237.4,157c-1.6-1.1-3.1-2.1-4.5-3.2c-0.2,0-0.3,0-0.4-0.1c-0.1-0.2-0.1-0.3-0.2-0.4l-0.6-0.5
						c-0.1,0-0.2-0.1-0.2-0.1l0,0c-0.2,0-0.2,0.1-0.1,0.2c0.1,0.1,0.1,0.2,0.1,0.3c0-0.1-0.1-0.2-0.1-0.3c-0.1-0.1-0.1-0.2-0.3-0.4
						c-0.2-0.1-0.4-0.2-0.6-0.4c0.3,0.1,0.5,0.3,0.6,0.4c0.1,0.1,0.3,0.1,0.4,0.2l0.1,0l-1.4-1.1c-0.1-0.1-0.2-0.1-0.3-0.2
						c-0.4-0.2-0.8-0.4-0.9-0.7l-0.3-0.2c0,0,0,0,0,0.1c0,0-0.1-0.1-0.1-0.1l-1.1-0.8c-0.3-0.1-0.6-0.2-0.9-0.3c0,0-0.1-0.3-0.1-0.4
						c-0.2,0-0.4,0-0.6-0.1c0.1,0.3,0.2,0.5,0.3,0.7c0.1,0.4,0.8,0,0.9,0.6c0-0.6-0.8-0.2-0.9-0.6c-0.1-0.2-0.2-0.5-0.3-0.7
						c-0.4-0.2-0.8-0.5-1-1c0.6,0.1,0.8,0.6,1,1c0.2,0.1,0.4,0.1,0.6,0.1c0,0.1,0.1,0.4,0.1,0.4c0.3,0.1,0.6,0.2,0.9,0.3
						c-0.7-0.5-1.4-1.1-2.1-1.6c-2.3-1.7-4.6-3.3-7-4.9l-1.1-0.7c-0.2-0.1-0.4-0.3-0.6-0.3l-0.6,0.4c-0.7,0.4-1.4,0.8-2.1,1.2
						c-1.2,0.7-2.5,1.5-3.8,2.2c-2.8,1.6-5.6,3.1-8.5,4.3c-2.9,1.1-5.7,2.1-8.4,3.3c-1.4,0.6-2.7,1.2-4,1.9
						c-1.3,0.6-2.7,1.3-4.1,1.9c-2.2,1-5.6,3.9-7.4,5.5c-1.1,1.2-1.4,1.5-1.3,1.5c0,0,0.5-0.1,0.5-0.1c0.9-0.3,1.7-0.5,2.8-0.9
						c1-0.4,2.2-0.9,4.2-1.4c-1.3,0.3-0.9,0,0.1-0.5c1-0.5,2.6-1.2,4-1.3c2-0.1,4-0.9,6-2.1c1.9-1.2,3.8-2.8,5.6-4
						c0.9-0.6,1.8-1.4,2.9-2.2c2.9-1.9,5.8-3.4,8.9-4.7c1.6-0.6,3.2-1.2,4.8-1.8l0.1-0.1l0,0l0,0c0,0,0,0,0.1,0c0,0,0.1,0.1,0,0.2
						c-0.1,0,0.2,0.2,0.3,0.3l0.5,0.4c0.3,0.3,0.7,0.6,1,0.9c1.5,1.2,3.1,1.9,4.5,2.6c1,0.6,1.9,1.6,2.6,2.2c1.2,0.9,2.4,1.5,3.5,2
						c-1.2-0.7-2.1-1.2-3.4-2c-0.8-0.6,0.9-0.1,1.6,0.2c0.3,0.1,0.4,0.8,0.7,0.9c0.5,0.4,1.1,0.5,1.8,0.8c0.3,0.1,0,0.5,0.1,0.5
						c0.8,0.4,1.8,0.3,2.2,0.7c0.3,0.3,0.6,0.6,0.9,0.9c0.2,0.2,0.4,0.3,0.6,0.4c0.2,0.1,0.3,0.1,0.5,0.2c0-0.2,0-0.4,0.1-0.5
						c0.2,0.2,0.4,0.4,0.6,0.6c-0.2-0.2-0.4-0.4-0.6-0.6c-0.1,0.2-0.1,0.3-0.1,0.5c1.2,0.4,2.5,1,3.7,1.6l0,0
						c-0.7-0.4-1.3-0.8-1.8-1.5c0.2,0.3,0.1,0.4-0.2,0.2l-0.1-0.4c0.6,0.3,1.3,0.6,1.6,1.2c0,0,0.3,0.1,0.4,0.1
						c0.1,0.2,0.1,0.3,0,0.4c0.1,0.1,0.3,0.1,0.4,0.2C238.1,157.8,237.4,157,237.4,157z"/>
					<path class="st1" d="M231,152.5c0.1,0.1,0.2,0.1,0.3,0.2l-1.2-0.9C230.2,152.2,230.6,152.4,231,152.5z"/>
				</g>
			</g>
		</g>
	</g>
</g>
<g class="st2">
	<g class="st4">
		<g>
			<g class="st0">
				<g>
					<path class="st1" d="M199.2,96.2L199.2,96.2C199.3,96.1,199.3,96.2,199.2,96.2C199.2,96.2,199.2,96.2,199.2,96.2z"/>
					<path class="st1" d="M199.4,96L199.4,96L199.4,96C199.4,96,199.4,96,199.4,96z"/>
					<path class="st1" d="M199.5,95.8C199.5,95.9,199.5,95.9,199.5,95.8C199.5,95.9,199.5,95.9,199.5,95.8z"/>
					<path class="st1" d="M199.4,96C199.4,96,199.4,96,199.4,96L199.4,96C199.5,96,199.5,96,199.4,96C199.4,96,199.4,96,199.4,96z"
						/>
					<path class="st1" d="M199.4,96C199.4,96,199.3,96,199.4,96C199.3,96,199.4,96,199.4,96z"/>
					<path class="st1" d="M198.9,95.6c0,0,0.1,0.1,0.1,0c0-0.1,0-0.3,0-0.3c0-0.1,0.2,0,0.2-0.1c0-0.1-0.1-0.5-0.2-0.4
						c-0.1,0.2-0.1,0.4-0.1,0.6c0,0.2,0,0.4,0,0.6c0,0,0,0.1-0.1,0.1l0.1-0.1C199,95.9,198.9,95.7,198.9,95.6z"/>
					<path class="st1" d="M198.6,96.9C198.6,96.9,198.6,96.9,198.6,96.9c0.1-0.1,0.2-0.2,0.2-0.3l-0.1,0c0,0.1,0,0.1,0,0
						C198.7,96.7,198.6,96.8,198.6,96.9C198.5,96.9,198.5,96.9,198.6,96.9z"/>
					<path class="st1" d="M198.5,97C198.5,97,198.5,97,198.5,97L198.5,97L198.5,97L198.5,97z"/>
					<path class="st1" d="M199.7,95.4c0.2-0.3,0.3-0.5,0.5-0.7c0,0-0.1-0.1,0-0.1c0,0,0.1,0,0.1,0l0.3-0.1c0,0,0.2,0,0.2,0v0
						c0,0-0.2-0.1-0.3-0.1c0,0-0.2,0-0.2,0c0,0,0,0,0.1,0c0,0,0,0,0.1,0c0,0,0-0.1,0-0.1c0,0.1,0,0.1-0.1,0.1c0,0,0,0.1,0,0.1l0,0
						l0.2-0.2c0,0,0,0,0-0.1c0-0.1,0-0.1,0.1-0.1l0,0l0,0l0,0l0.1-0.2c0-0.1,0-0.1,0-0.2c0,0,0.1,0,0.1,0c0-0.1-0.1-0.1-0.1-0.1
						c-0.1,0-0.2,0-0.2,0c-0.1,0,0.2,0.2-0.1,0.1c0.2,0.1-0.1-0.2,0.1-0.1c0.1,0,0.1,0,0.2,0c0-0.1,0.1-0.1,0.2-0.1
						c0,0.1-0.1,0.1-0.2,0.1c0,0,0,0.1,0.1,0.1c0,0-0.1,0-0.1,0c0,0.1,0,0.1,0,0.2l0.3-0.3c0.6-0.7,1-1.4,1.4-2.3
						c0.3-0.4,0.5-0.8,0.9-1.1c0.4-0.3,0.9-0.5,1.2-0.9c0.3-0.3,0.6-0.7,1-1c0.2-0.1,0.2-0.4,0.2-0.7c0-0.2,0-0.3,0-0.4
						c0-0.2,0-0.3-0.1-0.4c-0.1-0.3-0.1-0.4-0.1-0.4c0,0-0.1,0-0.1,0c-0.1,0.1-0.3,0.1-0.4,0.2c-0.2,0.1-0.3,0.3-0.7,0.4
						c0.2-0.1,0.2,0,0.1,0.1c-0.1,0.1-0.3,0.3-0.7,0.3c-0.5,0-0.8,0.2-0.9,0.5c-0.1,0.3-0.1,0.8-0.2,1.1c-0.1,0.2-0.1,0.4-0.1,0.6
						c-0.3,1.1-1.4,1.5-2.3,2.3c-0.2,0.2-0.2,0.5-0.3,0.8c-0.1,0.2-0.3,0.2-0.4,0.4c-0.1,0.2-0.2,0.4-0.2,0.6
						c0.1-0.2,0.1-0.4,0.2-0.6c0.1-0.1,0.2,0.3,0.2,0.4c0,0.1-0.3,0-0.2,0c-0.1,0.1,0,0.2,0,0.4c0,0.1-0.2-0.1-0.2,0
						c0,0.2,0.2,0.4,0.1,0.5l-0.2,0.1c0,0-0.1,0.1-0.1,0.1l0,0.1c0.1,0,0.1,0.1,0.2,0.1c0,0-0.1,0-0.1,0.1c0,0,0.1,0,0.1-0.1
						c-0.1,0-0.2-0.1-0.2-0.1c0,0.2,0,0.5,0,0.7l0,0c0-0.1,0.1-0.2,0.3-0.2c-0.1,0-0.1,0-0.1-0.1l0.1,0c0,0.1,0,0.2-0.2,0.2
						c0,0,0,0.1,0,0.1c0,0-0.1,0-0.1-0.1c0,0,0,0,0,0.1C199.5,95.4,199.7,95.4,199.7,95.4z"/>
					<path class="st1" d="M200.4,94.4C200.4,94.4,200.4,94.4,200.4,94.4l0.1-0.1C200.4,94.2,200.4,94.3,200.4,94.4z"/>
				</g>
			</g>
		</g>
	</g>
</g>
<g class="st2">
	<g class="st4">
		<g>
			<g class="st0">
				<g>
					<path class="st1" d="M206.8,96l-0.1-0.1C206.7,95.9,206.7,95.9,206.8,96C206.7,96,206.8,96,206.8,96z"/>
					<polygon class="st1" points="206.6,95.7 206.6,95.7 206.6,95.7 					"/>
					<path class="st1" d="M206.4,95.6C206.5,95.6,206.5,95.6,206.4,95.6C206.5,95.6,206.5,95.6,206.4,95.6z"/>
					<path class="st1" d="M206.5,95.8C206.5,95.7,206.6,95.7,206.5,95.8L206.5,95.8C206.6,95.7,206.5,95.7,206.5,95.8
						C206.5,95.7,206.5,95.7,206.5,95.8z"/>
					<path class="st1" d="M206.5,95.8C206.5,95.8,206.5,95.8,206.5,95.8C206.5,95.8,206.5,95.8,206.5,95.8z"/>
					<path class="st1" d="M206,96.1c0,0,0.1-0.1,0-0.1c-0.1,0-0.3,0-0.4-0.1c-0.1,0,0-0.2,0-0.2c-0.1,0-0.6,0-0.4,0.1
						c0.2,0.2,0.4,0.2,0.7,0.3c0.2,0.1,0.4,0.1,0.6,0.2c0,0,0.1,0.1,0.1,0.1l-0.1-0.2C206.5,96.1,206.2,96.2,206,96.1z"/>
					<path class="st1" d="M207.4,96.9C207.4,96.9,207.4,96.8,207.4,96.9c-0.1-0.2-0.2-0.3-0.3-0.3l0,0.1c0.1,0,0.1,0,0,0
						C207.2,96.7,207.3,96.8,207.4,96.9C207.4,96.9,207.4,96.9,207.4,96.9z"/>
					<path class="st1" d="M207.5,97C207.5,97,207.4,97,207.5,97L207.5,97L207.5,97L207.5,97z"/>
					<path class="st1" d="M205.9,95.3c-0.2-0.2-0.5-0.5-0.7-0.7c-0.1,0-0.1,0-0.1,0c0,0,0-0.1,0-0.1l-0.1-0.3l0-0.2h0
						c0,0-0.1,0.2-0.1,0.2c0,0,0,0.1,0,0.2c0,0,0,0,0-0.1c0,0,0-0.1,0-0.1c0,0-0.1,0-0.1-0.1c0.1,0,0.1-0.1,0.1-0.1
						c0,0,0.1-0.1,0.1-0.1h0l-0.2-0.1c0,0,0,0-0.1,0c-0.1,0-0.2,0-0.1-0.1l0,0l0,0l0,0l-0.1-0.2c-0.1,0-0.2,0-0.2,0
						c0,0,0-0.1,0.1-0.1c-0.1,0-0.1,0-0.2,0c0,0.1-0.1,0.2-0.1,0.2c-0.1,0.1,0.3-0.1,0.1,0.1c0.1-0.2-0.2,0-0.1-0.1
						c0-0.1,0-0.1,0.1-0.2c-0.1,0-0.1-0.1-0.1-0.3c0.1,0,0.1,0.1,0.1,0.3c0,0,0.1,0,0.2,0c0,0-0.1,0.1-0.1,0.1c0.1,0,0.1,0,0.2,0
						l-0.3-0.4c-0.6-0.8-1.4-1.4-2.2-2.2c-0.4-0.4-0.8-0.8-1.1-1.3c-0.2-0.5-0.4-1.1-0.7-1.5c-0.3-0.5-0.6-0.9-0.9-1.3
						c-0.1-0.2-0.4-0.3-0.7-0.4c-0.2-0.1-0.3-0.1-0.5-0.2c-0.2,0-0.3-0.1-0.5-0.1c-0.4,0-0.5,0-0.5,0c0,0,0,0.1,0,0.1
						c0.1,0.2,0.1,0.3,0.2,0.5c0.1,0.2,0.2,0.4,0.3,0.8c0-0.3,0.1-0.3,0.2-0.1c0.1,0.2,0.3,0.4,0.2,0.8c-0.1,0.5,0.1,0.9,0.4,1.1
						c0.3,0.2,0.8,0.4,1.2,0.6c0.2,0.1,0.4,0.2,0.6,0.3c1.1,0.6,1.4,1.9,2,3.1c0.2,0.3,0.5,0.4,0.8,0.5c0.2,0.1,0.2,0.4,0.3,0.5
						c0.2,0.2,0.4,0.3,0.6,0.4c-0.2-0.1-0.4-0.2-0.6-0.4c-0.1-0.1,0.3-0.1,0.5-0.1c0.1,0-0.1,0.3,0,0.3c0.1,0.1,0.2,0.1,0.4,0.1
						c0.1,0-0.1,0.2-0.1,0.2c0.2,0.1,0.5-0.1,0.5,0.1l0.1,0.2c0,0,0,0.1,0.1,0.1l0.1,0c0-0.1,0.1-0.1,0.2-0.2c0,0,0,0.1,0.1,0.2
						c0,0,0-0.1-0.1-0.2c-0.1,0.1-0.1,0.1-0.2,0.2c0.3,0,0.5,0.1,0.8,0.2l0,0c-0.1-0.1-0.2-0.2-0.2-0.4c0,0.1,0,0.1-0.1,0.1l0-0.1
						c0.1,0,0.3,0.1,0.2,0.3c0,0,0.1,0,0.1,0c0,0,0,0.1-0.1,0.1c0,0,0,0,0.1,0C206,95.5,205.9,95.3,205.9,95.3z"/>
					<path class="st1" d="M205,94.3C205,94.3,205,94.3,205,94.3l-0.1-0.2C204.8,94.2,204.9,94.2,205,94.3z"/>
				</g>
			</g>
		</g>
	</g>
</g>
<g class="st2">
	<g class="st4">
		<g>
			<g class="st0">
				<g>
					<path class="st1" d="M227.2,96.2L227.2,96.2C227.3,96.1,227.3,96.2,227.2,96.2C227.2,96.2,227.2,96.2,227.2,96.2z"/>
					<path class="st1" d="M227.4,96L227.4,96L227.4,96C227.4,96,227.4,96,227.4,96z"/>
					<path class="st1" d="M227.5,95.8C227.5,95.9,227.5,95.9,227.5,95.8C227.5,95.9,227.5,95.9,227.5,95.8z"/>
					<path class="st1" d="M227.4,96C227.4,96,227.4,96,227.4,96L227.4,96C227.5,96,227.5,96,227.4,96C227.4,96,227.4,96,227.4,96z"
						/>
					<path class="st1" d="M227.4,96C227.4,96,227.3,96,227.4,96C227.3,96,227.4,96,227.4,96z"/>
					<path class="st1" d="M226.9,95.6c0,0,0.1,0.1,0.1,0c0-0.1,0-0.3,0-0.3c0-0.1,0.2,0,0.2-0.1c0-0.1-0.1-0.5-0.2-0.4
						c-0.1,0.2-0.1,0.4-0.1,0.6c0,0.2,0,0.4,0,0.6c0,0,0,0.1-0.1,0.1l0.1-0.1C227,95.9,226.9,95.7,226.9,95.6z"/>
					<path class="st1" d="M226.6,96.9C226.6,96.9,226.6,96.9,226.6,96.9c0.1-0.1,0.2-0.2,0.2-0.3l-0.1,0c0,0.1,0,0.1,0,0
						C226.7,96.7,226.6,96.8,226.6,96.9C226.5,96.9,226.5,96.9,226.6,96.9z"/>
					<path class="st1" d="M226.5,97C226.5,97,226.5,97,226.5,97L226.5,97L226.5,97L226.5,97z"/>
					<path class="st1" d="M227.7,95.4c0.2-0.3,0.3-0.5,0.5-0.7c0,0-0.1-0.1,0-0.1c0,0,0.1,0,0.1,0l0.3-0.1c0,0,0.2,0,0.2,0v0
						c0,0-0.2-0.1-0.3-0.1c0,0-0.2,0-0.2,0c0,0,0,0,0.1,0c0,0,0,0,0.1,0c0,0,0-0.1,0-0.1c0,0.1,0,0.1-0.1,0.1c0,0,0,0.1,0,0.1l0,0
						l0.2-0.2c0,0,0,0,0-0.1c0-0.1,0-0.1,0.1-0.1l0,0l0,0l0,0l0.1-0.2c0-0.1,0-0.1,0-0.2c0,0,0.1,0,0.1,0c0-0.1-0.1-0.1-0.1-0.1
						c-0.1,0-0.2,0-0.2,0c-0.1,0,0.2,0.2-0.1,0.1c0.2,0.1-0.1-0.2,0.1-0.1c0.1,0,0.1,0,0.2,0c0-0.1,0.1-0.1,0.2-0.1
						c0,0.1-0.1,0.1-0.2,0.1c0,0,0,0.1,0.1,0.1c0,0-0.1,0-0.1,0c0,0.1,0,0.1,0,0.2l0.3-0.3c0.6-0.7,1-1.4,1.4-2.3
						c0.3-0.4,0.5-0.8,0.9-1.1c0.4-0.3,0.9-0.5,1.2-0.9c0.3-0.3,0.6-0.7,1-1c0.2-0.1,0.2-0.4,0.2-0.7c0-0.2,0-0.3,0-0.4
						c0-0.2,0-0.3-0.1-0.4c-0.1-0.3-0.1-0.4-0.1-0.4c0,0-0.1,0-0.1,0c-0.1,0.1-0.3,0.1-0.4,0.2c-0.2,0.1-0.3,0.3-0.7,0.4
						c0.2-0.1,0.2,0,0.1,0.1c-0.1,0.1-0.3,0.3-0.7,0.3c-0.5,0-0.8,0.2-0.9,0.5c-0.1,0.3-0.1,0.8-0.2,1.1c-0.1,0.2-0.1,0.4-0.1,0.6
						c-0.3,1.1-1.4,1.5-2.3,2.3c-0.2,0.2-0.2,0.5-0.3,0.8c-0.1,0.2-0.3,0.2-0.4,0.4c-0.1,0.2-0.2,0.4-0.2,0.6
						c0.1-0.2,0.1-0.4,0.2-0.6c0.1-0.1,0.2,0.3,0.2,0.4c0,0.1-0.3,0-0.2,0c-0.1,0.1,0,0.2,0,0.4c0,0.1-0.2-0.1-0.2,0
						c0,0.2,0.2,0.4,0.1,0.5l-0.2,0.1c0,0-0.1,0.1-0.1,0.1l0,0.1c0.1,0,0.1,0.1,0.2,0.1c0,0-0.1,0-0.1,0.1c0,0,0.1,0,0.1-0.1
						c-0.1,0-0.2-0.1-0.2-0.1c0,0.2,0,0.5,0,0.7l0,0c0-0.1,0.1-0.2,0.3-0.2c-0.1,0-0.1,0-0.1-0.1l0.1,0c0,0.1,0,0.2-0.2,0.2
						c0,0,0,0.1,0,0.1c0,0-0.1,0-0.1-0.1c0,0,0,0,0,0.1C227.5,95.4,227.7,95.4,227.7,95.4z"/>
					<path class="st1" d="M228.4,94.4C228.4,94.4,228.4,94.4,228.4,94.4l0.1-0.1C228.4,94.2,228.4,94.3,228.4,94.4z"/>
				</g>
			</g>
		</g>
	</g>
</g>
<g class="st2">
	<g class="st4">
		<g>
			<g class="st0">
				<g>
					<path class="st1" d="M234.8,96l-0.1-0.1C234.7,95.9,234.7,95.9,234.8,96C234.7,96,234.8,96,234.8,96z"/>
					<polygon class="st1" points="234.6,95.7 234.6,95.7 234.6,95.7 					"/>
					<path class="st1" d="M234.4,95.6C234.5,95.6,234.5,95.6,234.4,95.6C234.5,95.6,234.5,95.6,234.4,95.6z"/>
					<path class="st1" d="M234.5,95.8C234.5,95.7,234.6,95.7,234.5,95.8L234.5,95.8C234.6,95.7,234.5,95.7,234.5,95.8
						C234.5,95.7,234.5,95.7,234.5,95.8z"/>
					<path class="st1" d="M234.5,95.8C234.5,95.8,234.5,95.8,234.5,95.8C234.5,95.8,234.5,95.8,234.5,95.8z"/>
					<path class="st1" d="M234,96.1c0,0,0.1-0.1,0-0.1c-0.1,0-0.3,0-0.4-0.1c-0.1,0,0-0.2,0-0.2c-0.1,0-0.6,0-0.4,0.1
						c0.2,0.2,0.4,0.2,0.7,0.3c0.2,0.1,0.4,0.1,0.6,0.2c0,0,0.1,0.1,0.1,0.1l-0.1-0.2C234.5,96.1,234.2,96.2,234,96.1z"/>
					<path class="st1" d="M235.4,96.9C235.4,96.9,235.4,96.8,235.4,96.9c-0.1-0.2-0.2-0.3-0.3-0.3l0,0.1c0.1,0,0.1,0,0,0
						C235.2,96.7,235.3,96.8,235.4,96.9C235.4,96.9,235.4,96.9,235.4,96.9z"/>
					<path class="st1" d="M235.5,97C235.5,97,235.4,97,235.5,97L235.5,97L235.5,97L235.5,97z"/>
					<path class="st1" d="M233.9,95.3c-0.2-0.2-0.5-0.5-0.7-0.7c-0.1,0-0.1,0-0.1,0c0,0,0-0.1,0-0.1l-0.1-0.3l0-0.2h0
						c0,0-0.1,0.2-0.1,0.2c0,0,0,0.1,0,0.2c0,0,0,0,0-0.1c0,0,0-0.1,0-0.1c0,0-0.1,0-0.1-0.1c0.1,0,0.1-0.1,0.1-0.1
						c0,0,0.1-0.1,0.1-0.1h0l-0.2-0.1c0,0,0,0-0.1,0c-0.1,0-0.2,0-0.1-0.1l0,0l0,0l0,0l-0.1-0.2c-0.1,0-0.2,0-0.2,0
						c0,0,0-0.1,0.1-0.1c-0.1,0-0.1,0-0.2,0c0,0.1-0.1,0.2-0.1,0.2c-0.1,0.1,0.3-0.1,0.1,0.1c0.1-0.2-0.2,0-0.1-0.1
						c0-0.1,0-0.1,0.1-0.2c-0.1,0-0.1-0.1-0.1-0.3c0.1,0,0.1,0.1,0.1,0.3c0,0,0.1,0,0.2,0c0,0-0.1,0.1-0.1,0.1c0.1,0,0.1,0,0.2,0
						l-0.3-0.4c-0.6-0.8-1.4-1.4-2.2-2.2c-0.4-0.4-0.8-0.8-1.1-1.3c-0.2-0.5-0.4-1.1-0.7-1.5c-0.3-0.5-0.6-0.9-0.9-1.3
						c-0.1-0.2-0.4-0.3-0.7-0.4c-0.2-0.1-0.3-0.1-0.5-0.2c-0.2,0-0.3-0.1-0.5-0.1c-0.4,0-0.5,0-0.5,0c0,0,0,0.1,0,0.1
						c0.1,0.2,0.1,0.3,0.2,0.5c0.1,0.2,0.2,0.4,0.3,0.8c0-0.3,0.1-0.3,0.2-0.1c0.1,0.2,0.3,0.4,0.2,0.8c-0.1,0.5,0.1,0.9,0.4,1.1
						c0.3,0.2,0.8,0.4,1.2,0.6c0.2,0.1,0.4,0.2,0.6,0.3c1.1,0.6,1.4,1.9,2,3.1c0.2,0.3,0.5,0.4,0.8,0.5c0.2,0.1,0.2,0.4,0.3,0.5
						c0.2,0.2,0.4,0.3,0.6,0.4c-0.2-0.1-0.4-0.2-0.6-0.4c-0.1-0.1,0.3-0.1,0.5-0.1c0.1,0-0.1,0.3,0,0.3c0.1,0.1,0.2,0.1,0.4,0.1
						c0.1,0-0.1,0.2-0.1,0.2c0.2,0.1,0.5-0.1,0.5,0.1l0.1,0.2c0,0,0,0.1,0.1,0.1l0.1,0c0-0.1,0.1-0.1,0.2-0.2c0,0,0,0.1,0.1,0.2
						c0,0,0-0.1-0.1-0.2c-0.1,0.1-0.1,0.1-0.2,0.2c0.3,0,0.5,0.1,0.8,0.2l0,0c-0.1-0.1-0.2-0.2-0.2-0.4c0,0.1,0,0.1-0.1,0.1l0-0.1
						c0.1,0,0.3,0.1,0.2,0.3c0,0,0.1,0,0.1,0c0,0,0,0.1-0.1,0.1c0,0,0,0,0.1,0C234,95.5,233.9,95.3,233.9,95.3z"/>
					<path class="st1" d="M233,94.3C233,94.3,233,94.3,233,94.3l-0.1-0.2C232.8,94.2,232.9,94.2,233,94.3z"/>
				</g>
			</g>
		</g>
	</g>
</g>
<g class="st2">
	<g class="st4">
		<g>
			<g class="st0">
				<g>
					<path class="st1" d="M200.8,112.5l0.3,0.5c-0.1-0.1-0.1-0.2-0.1-0.3C201,112.6,200.9,112.6,200.8,112.5z"/>
					<polygon class="st1" points="201.5,113.5 201.6,113.6 201.6,113.6 					"/>
					<path class="st1" d="M202.2,114.3c-0.1-0.2-0.2-0.3-0.3-0.4C201.9,114,202,114.2,202.2,114.3z"/>
					<path class="st1" d="M201.7,113.6C201.7,113.7,201.7,113.7,201.7,113.6L201.7,113.6l0.1,0.3
						C201.8,113.8,201.7,113.7,201.7,113.6z"/>
					<path class="st1" d="M201.7,113.6c0-0.1-0.1-0.2-0.1-0.2C201.6,113.5,201.7,113.5,201.7,113.6z"/>
					<path class="st1" d="M202.4,113.5c0.1,0.1-0.1,0.2,0.1,0.3c0.3,0.4,0.7,0.7,1,1c0.2,0.1,0.2,0.5,0.4,0.7
						c0.4,0.4,1.4,1.2,0.9,0.6c-0.7-0.9-1.2-1.4-1.9-2.2c-0.6-0.6-1.1-1.2-1.7-1.8c-0.2-0.2-0.3-0.4-0.4-0.5
						c0.2,0.2,0.3,0.5,0.5,0.8C201.4,112.6,201.9,112.9,202.4,113.5z"/>
					<path class="st1" d="M198.3,108.7c0.1,0.1,0.2,0.3,0.2,0.3c0.2,0.4,0.5,0.8,0.9,1.2l-0.1-0.2c-0.2-0.2-0.2-0.2-0.1,0
						c-0.3-0.5-0.6-1-1-1.4C198.2,108.6,198.2,108.6,198.3,108.7z"/>
					<path class="st1" d="M198,108.3c0.1,0.1,0.1,0.2,0.2,0.3l0,0C198.1,108.4,198,108.3,198,108.3L198,108.3z"/>
					<path class="st1" d="M203.6,116.1c0.4,0.6,0.9,1.2,1.3,1.7l0.3,0.4l0.2,0.2l0.1,0.1c0,0,0,0,0,0l0,0c0.2-0.3,0.5-0.5,0.7-0.8
						c0.1-0.1,0.1-0.2,0.2-0.3c0.1,0,0.2-0.1,0.3-0.2l0.4-0.4l0.1-0.2l0,0c0.1-0.1,0-0.1-0.1-0.1c-0.1,0-0.1,0.1-0.2,0.1
						c0,0,0.1-0.1,0.2-0.1c0.1,0,0.2-0.1,0.3-0.2c0.1-0.1,0.2-0.3,0.4-0.4c-0.1,0.2-0.2,0.3-0.4,0.4l-0.2,0.3l0,0.1l0.9-0.9
						c0.1-0.1,0.1-0.2,0.2-0.2c0.2-0.3,0.4-0.5,0.6-0.6l0.2-0.2c0,0,0,0,0,0c0,0,0.1,0,0.1,0l0.7-0.7c0.1-0.2,0.2-0.4,0.3-0.6
						c0,0,0.2-0.1,0.2-0.1c0-0.1,0.1-0.2,0.2-0.4c-0.2,0.1-0.3,0.1-0.5,0.2c-0.2,0.1-0.2,0.5-0.5,0.6c0.4,0,0.3-0.5,0.5-0.6
						c0.1-0.1,0.3-0.1,0.5-0.2c0.2-0.3,0.5-0.5,0.8-0.7c-0.2,0.4-0.5,0.6-0.8,0.7c-0.1,0.1-0.1,0.2-0.2,0.4c-0.1,0-0.2,0.1-0.2,0.1
						c-0.1,0.2-0.2,0.4-0.3,0.6c0.5-0.5,0.9-0.9,1.4-1.4c0.7-0.7,1.3-1.4,2-2.1l0.4-0.4l0.1-0.1l0,0.1l0.1,0.3
						c0.1,0.4,0.2,0.7,0.3,1.1c0.6,1.9,1.4,4,2.1,6.1c0.2,0.6,0.4,1.1,0.6,1.7l0.4,1.1l0.2,0.5c0,0,0,0.1,0.1,0.1l0.1-0.1l0.1-0.2
						c0.3-0.6,0.7-1.2,1-1.8c0.3-0.5,0.6-1,0.9-1.5c1.2-1.9,2.5-3.7,3.6-5.6l0.2-0.4c0.1-0.1,0.2-0.3,0.2-0.3c0-0.1,0-0.2,0.1-0.2
						c0,0,0.1-0.2,0.1-0.1c0.1,0.1,0.1,0.1,0.2,0.2c0,0.1,0,0.2,0.1,0.3c0.2,0.2,0.4,0.4,0.6,0.6c0.4,0.4,0.7,0.8,1.1,1.3
						c1.2,1.3,3.8,3.4,5.2,4.4c1,0.6,1.2,0.8,1.2,0.8c0,0-0.2-0.3-0.2-0.3c-0.4-0.6-0.8-1.1-1.3-1.7c-0.5-0.6-1.2-1.4-2-2.6
						c0.6,0.8,0.3,0.6-0.3,0c-0.6-0.6-1.4-1.6-1.8-2.5c-0.2-0.3-0.3-0.6-0.5-0.9c-0.1-0.2-0.2-0.3-0.3-0.5l-0.1-0.1l-0.2-0.2
						l-0.4-0.4c-0.5-0.6-1.1-1.3-1.7-2c-0.1-0.2-0.1,0.1-0.2,0.1l-0.1,0.3l-0.3,0.6l-0.3,0.6l-0.3,0.6l-0.3,0.6l-0.1,0.3l-0.1,0.1
						l-0.3,0.6c-0.2,0.4-0.3,0.8-0.5,1.2c-0.3,0.8-0.7,1.6-1,2.3c-0.3,0.8-0.7,1.6-1.1,2.5c-0.3,0.6-0.5,1.1-0.8,1.7
						c-0.1,0.2-0.3,0.7-0.3,0.6c0,0-0.1,0,0,0c0,0,0,0,0,0c0,0,0,0-0.1,0l-0.1-0.4c-0.2-0.6-0.3-1.2-0.5-1.8
						c-0.3-1.2-0.6-2.4-0.8-3.7c-0.1-0.6-0.3-1.3-0.4-1.9c0-0.1-0.1-0.5-0.2-0.8l-0.3-0.9c-0.2-0.7-0.4-1.1-0.6-1.7l-0.2-0.4
						l-0.1-0.2l0-0.1c0,0,0-0.1-0.1,0l-0.6,0.7c-0.4,0.5-0.8,0.9-1.2,1.4c-0.9,1.1-1.1,1.4-1.5,1.9c-0.6,0.7-1.3,1.2-1.8,1.8
						c-0.8,0.8-1.4,1.6-1.9,2.3c0.7-0.8,1.1-1.4,1.9-2.2c0.5-0.6-0.1,0.6-0.4,1c-0.1,0.2-0.5,0.3-0.7,0.5c-0.3,0.3-0.5,0.7-0.8,1.2
						c-0.1,0.2-0.3,0-0.3,0.1c-0.2,0.3-0.3,0.6-0.5,0.8c-0.1,0.1-0.1,0.2-0.1,0.3c0,0.1-0.1,0.1-0.1,0.2c-0.2,0.1-0.3,0.2-0.4,0.3
						c-0.1,0.1-0.1-0.1-0.2-0.1l-0.1-0.1c0,0.1,0,0.2,0,0.4c-0.1-0.1-0.2-0.3-0.2-0.5c0.1,0.1,0.2,0.3,0.2,0.5c0-0.1,0-0.2,0-0.4
						c-0.2-0.2-1.1-1.1-1.7-1.8l0,0c0.4,0.4,0.7,0.9,0.9,1.5c-0.1-0.2,0-0.2,0.1,0l0,0.2c-0.3-0.4-0.7-0.7-0.9-1.2
						c0,0-0.2-0.1-0.2-0.2c-0.1-0.1,0-0.2,0-0.2c-0.1-0.1-0.1-0.2-0.2-0.3C203.3,115.4,203.6,116.1,203.6,116.1z"/>
					<path class="st1" d="M207.4,116.5c0,0.1-0.1,0.1-0.2,0.2l0.8-0.8C207.8,116,207.6,116.2,207.4,116.5z"/>
				</g>
			</g>
		</g>
	</g>
</g>
</svg>
