<?xml version="1.0" encoding="utf-8"?>
<!-- Generator: Adobe Illustrator 19.2.1, SVG Export Plug-In . SVG Version: 6.00 Build 0)  -->
<svg version="1.1" id="Calque_1" xmlns="http://www.w3.org/2000/svg" xmlns:xlink="http://www.w3.org/1999/xlink" x="0px" y="0px"
	 viewBox="0 0 434.7 300" style="enable-background:new 0 0 434.7 300;" xml:space="preserve">
<style type="text/css">
	.st0{opacity:0.85;}
	.st1{fill:#1D1D1D;}
</style>
<g>
	<g>
		<g>
			<g class="st0">
				<g>
					<path class="st1" d="M223.8,252.9c-2.2,0-4.4,0-6.7-0.1c1.1,0,2.2,0.1,3.4,0.2C222,253.1,222.7,253,223.8,252.9z"/>
					<path class="st1" d="M211,252.8c-0.4,0-0.8,0-1.2,0c-0.4,0-0.7,0-1,0C209.5,252.8,210.3,252.8,211,252.8z"/>
					<path class="st1" d="M199.4,252.8c2.1,0,4,0,5.9,0C203.6,252.8,201.7,252.8,199.4,252.8z"/>
					<path class="st1" d="M208.6,253c-0.7-0.1-1.1-0.2,0.1-0.2c0,0,0,0,0,0c-1.2,0-2.3,0-3.5,0.1C206.5,252.9,207.7,252.9,208.6,253
						z"/>
					<path class="st1" d="M208.6,253c0.7,0.1,1.8,0.2,2.2,0.2C210.2,253.1,209.4,253.1,208.6,253z"/>
					<path class="st1" d="M205.7,254.8c-1.2,0.1-0.9-0.5-3.2-0.3c-5.4,0.2-10.1,0.5-15.2,0.5c-2.3,0.2-6-0.5-8.3-0.3
						c-5.5,0.2-19.4,1.2-11.2,1.1c12.3-0.3,20.4-0.5,31.4-0.7c9-0.3,17.6-0.7,26.8-0.9c2.6,0,5,0,7.4,0c-3.2,0-6.4-0.1-10-0.1
						C218.8,254,213.1,254.6,205.7,254.8z"/>
					<path class="st1" d="M273,253.4c-1.2,0-3.5,0-3.5,0c-5.2-0.1-10.6-0.2-16.1-0.1c0.8,0,1.6,0.1,2.4,0.1c3.1,0,3.5-0.1,0.7-0.1
						c6.3,0.2,12.3,0.2,18.4,0.2C274.6,253.5,274.7,253.4,273,253.4z"/>
					<path class="st1" d="M278.6,253.5c-1.2,0-2.4,0-3.6,0c0,0,0.1,0,0.1,0c1.2,0,2.4,0,3.6,0C278.7,253.5,278.6,253.5,278.6,253.5z
						"/>
					<path class="st1" d="M174.7,253.3c-15.5,0-30,0-44.2-0.1c-1.1,0.1-1.9,0.3-3.3,0.2c-1.1-0.1-2.2-0.2-3.3-0.3
						c-2.1,0-4.1,0-6.2,0c-0.7,0-1.4,0-2.2,0.1c0,0,0,0-0.1,0c-1.2,0.1-0.8,0.2-0.1,0.3c0.8,0.1,1.5,0.2,2.2,0.3
						c-0.4-0.1-1.5-0.2-2.2-0.3c-1-0.1-2.1-0.2-3.3-0.2c-1.9,0-3.9,0.1-5.9,0c2.3-0.1,4.2-0.1,5.9,0c1.2,0,2.3-0.1,3.5-0.1
						c0.3,0,0.7,0,1-0.1c-4.7,0-9.4-0.1-14.2-0.1c-1.1,0-2.1,0-3,0.1c-3.4,0.1-6.8,0.2-8.9-0.2c-0.8,0-1.7,0-2.5,0
						c0.2,0,0.3,0,0.5,0.1c-0.3,0-0.6-0.1-0.9-0.1l-2.3,0l-1.1,0l-0.1,0c-0.1,0,0-0.1,0-0.1l0-0.3l0-0.6c0-1.6,0-3.2,0.1-4.8
						c-0.1-2.3-0.3-4.7-0.4-7.1c0,0,0.3-1.6,0.4-2.4c-0.2-1-0.3-2.4-0.4-4c-0.2,1.9-0.5,3.7-0.6,5.3c-0.4,2.4,0.8,5.4,0,8.2
						c0.7-2.8-0.4-5.8,0-8.2c0.2-1.6,0.4-3.4,0.6-5.3c-0.1-3.4,0-7.8,0.3-11.3c0.3,4.4,0,8.1-0.3,11.3c0.1,1.6,0.2,3,0.4,4
						c-0.1,0.8-0.4,2.4-0.4,2.4c0.1,2.4,0.3,4.8,0.4,7.1c0.1-7,0.1-14.1,0.2-21.3c0.2-23.2,0.2-45.5,0.1-68.1
						c-0.1-22.5-0.3-45.3-0.4-69.4c-0.1-13.1-0.1-25.8,0-38.5c0-6.3,0.1-12.6,0.1-18.8c0-3,0.1-6.1,0.1-9.1l0-0.5
						c0.1-0.1,0.4,0,0.5,0l2,0c1.5,0,3.1,0.1,4.6,0.1c24.5,0.5,48,1.3,71.5,1.6c11.8,0.1,23.5,0.2,35.5,0.3c3,0,6,0.1,9,0.1
						c1.5,0,3,0,4.5,0l1.1,0l0.6,0l0.1,0c0.2,0,0.3,0,0.4,0c0.1,0,0.2,0,0.2,0l0,0.2c0,0.1-0.1,0.3-0.1,0.4l0,0.1l0,0.3l0,0.6l0,1.1
						l0,2.3c0,3.1-0.1,6.1-0.1,9.2C213.8,47,214,60,214.4,73h5.7c-0.4-14-1.1-28-1.5-37.5c-0.4-6.1-0.7-9.9-0.8-12.2
						c-0.2-2.2-0.2-2.9-0.3-2.8c-0.1,0.3-0.2,3.7-0.2,4.3c-0.2,6.7-0.5,12.8-0.7,20.2c-0.2,7.4-0.3,16-0.8,28h2.8
						c0.1-3,0.3-6.1,0.4-9.5c-0.5,10.5-0.6,6.6-0.6-2.3c0-9,0.3-23,1.1-32.9c0.1-0.9,0.2-1.8,0.2-2.7l0.1-0.7l0-0.3l0-0.5
						c0-0.8,0.1-1.6,0.1-2.4c0-0.8,0.1-1.7,0.1-2.5l0.1-1.3l0-0.2c0-0.1-0.1,0-0.1,0l-0.3,0l-0.6,0c-1.7,0-3.4-0.1-5.2-0.1
						c-2-0.1-4.1-0.2-6.2-0.3c-2-0.1-4.1-0.1-6.2-0.2c-8.4-0.2-17.3-0.3-26.4-0.2c-18.2,0.2-37.2,1-54.9,1.3
						c-8.8,0.2-18.2,0.5-28.8,0.8c-1.7,0-3.4,0.1-5.1,0.1l-3.6,0L82,19l-0.3,0c0,0.1,0,0.2,0,0.3l0,1.2l0,2.1
						c0,3.4,0.1,6.8,0.1,10.1c0.1,6.7,0.1,13.4,0.1,20.1c0,13.4-0.2,26.7-0.5,40c-0.6,26.8-1.4,53.9-1.8,82.6
						c-0.2,15.3,0.3,28.7,0.6,41.5c0,9.4-0.4,19.4-0.4,27c0,4,0,7.9,0,11.7l0,0.9l0,0.2v0.1c0,0-0.1,0.1,0,0.1l0.4,0
						c0.6,0,1.2,0,1.8,0c1.2,0,2.4,0,3.6,0c1.7,0,3.4,0,5.1-0.1c5.3-0.1,10.4-0.3,15.3-0.4c-5.5,0.1-10.3,0.2-15.2,0.2
						c-1.5,0-3,0-4.5,0.1c-1.1,0-2.2,0-3.3,0c-0.6,0-1.1,0-1.7,0l-0.8,0l-0.4,0c-0.1,0-0.2,0-0.2,0l0-0.2c0-2.3,0-4.6,0-7
						c0-1.5,0-3.1,0-4.8c0-4.1,0.2-2.7,0.5,0.5c0.1,0.8,0.1,1.7,0.2,2.6c0,0.2,0,0.5,0,0.7c0,0.3,0,0.7,0,1c0,0.7,0.1,1.5,0.1,2.2
						c0,0.7,0,1.4,0.1,2.1c0,0.3,0,0.7,0,1l0,0.5l0,0.2l0,0.1c0,0,0.1,0,0.1,0c1.3,0,2.6-0.1,3.6-0.1c0.9,0,1.8,0,2.9,0
						c0.2,0,0.5,0,0.7,0c0.2,0,0.4,0,0.5,0.1c0.4,0,0.7,0.1,1.1,0.1c1.5,0.2,3,0.3,4.2,0.3c5.1,0,9.7-0.3,15.1-0.6
						c2.3-0.2,2.1,0.6,3.2,0.5c7.4-0.2,13.1-1.2,17.9-1c3.6,0.1,6.8,0.2,10,0.3c2,0,4,0.1,6.1,0c1.3-0.1,2.7-0.1,4-0.2
						c-1.1-0.2-1.5-0.5-1.8-0.7c2,0.1,4.7,0.1,6.7,0.2c-2-0.1-4.7-0.1-6.7-0.2c0.4,0.3,0.7,0.5,1.8,0.7c9.8-0.5,21-0.9,31.5-1.2
						c0,0-0.1,0-0.1-0.1c-6.1,0.1-12.1,0.1-18.4-0.4c2.7,0.1,2.4,0.3-0.7,0.4c-0.8-0.1-1.6-0.2-2.4-0.3c5.5-0.2,10.9-0.4,16.1,0.1
						c0,0,2.3-0.1,3.5-0.2c1.7,0.1,1.6,0.3,2,0.4c1.2,0,2.4,0,3.6-0.1C182.8,253.7,174.7,253.3,174.7,253.3z"/>
					<path class="st1" d="M111.8,253.2c0.8,0,1.9,0,2.9-0.1c-4,0-7.9-0.1-11.9-0.1C105,253.4,108.4,253.3,111.8,253.2z"/>
				</g>
			</g>
		</g>
	</g>
</g>
<g>
	<g>
		<g>
			<g class="st0">
				<g>
					<path class="st1" d="M242.8,86.2c-0.3-0.6-0.6-1.1-0.9-1.7c0.1,0.3,0.3,0.6,0.4,0.9C242.5,85.8,242.6,85.9,242.8,86.2z"/>
					<path class="st1" d="M241,83c-0.1-0.1-0.1-0.2-0.2-0.3c-0.1-0.1-0.1-0.2-0.2-0.2L241,83z"/>
					<path class="st1" d="M238.9,80.4c0.4,0.5,0.7,0.9,1.1,1.3C239.7,81.3,239.3,80.9,238.9,80.4z"/>
					<path class="st1" d="M240.4,82.6c-0.1-0.2-0.1-0.3,0.1-0.1c0,0,0,0,0,0c-0.2-0.3-0.4-0.5-0.6-0.8
						C240.2,82,240.3,82.3,240.4,82.6z"/>
					<path class="st1" d="M240.4,82.6c0.1,0.2,0.2,0.5,0.3,0.6C240.6,83,240.5,82.8,240.4,82.6z"/>
					<path class="st1" d="M238.8,82.8c-0.3-0.2,0.1-0.4-0.4-0.8c-0.6-0.5-1.1-0.9-1.7-1.3c-0.6-0.4-1.1-0.7-1.7-1.2
						c-0.5-0.3-1-1.3-1.6-1.6c-0.3-0.2-0.8-0.4-1.3-0.6c-0.5-0.2-1-0.3-1.5-0.4c-0.8-0.2-1.3-0.2-0.3,0.3c2.9,1.4,4.8,2.5,7.1,4.5
						C237.9,82.1,238.4,82.5,238.8,82.8l1.3,1.4c0.2,0.2,0.4,0.4,0.6,0.7l0.6,0.7c0.4,0.5,0.8,1,1.1,1.5c0.3,0.6,0.6,1.2,0.9,1.8
						c-0.2-0.4-0.4-0.8-0.6-1.2c-0.2-0.4-0.4-0.8-0.7-1.3c-0.3-0.6-0.8-1.2-1.3-1.8C240.2,84.1,239.5,83.5,238.8,82.8z"/>
					<path class="st1" d="M246.4,99.5c0-0.3-0.1-1-0.1-1c0-0.7-0.2-1.5-0.2-2.2c-0.1-0.4-0.1-0.8-0.2-1.1c-0.1-0.4-0.2-0.7-0.3-1.1
						c0,0.2,0.1,0.4,0.1,0.7c0.2,0.9,0.2,1,0.1,0.2c0.1,0.9,0.2,1.8,0.4,2.6c0.1,0.8,0.1,1.7,0.2,2.6
						C246.4,100,246.4,100,246.4,99.5z"/>
					<path class="st1" d="M246.5,101.1c0-0.3,0-0.7-0.1-1l0,0C246.4,100.5,246.4,100.8,246.5,101.1L246.5,101.1z"/>
					<path class="st1" d="M233.3,76.1c-3.7-2.4-7.6-4-11.5-4.8c-0.3,0.1-0.6,0.2-1,0.1c-0.3-0.2-0.6-0.3-0.9-0.4
						c-0.6-0.1-1.2-0.1-1.8-0.2c-0.2,0-0.4,0-0.6,0l0,0c-0.3,0.1-0.2,0.2,0,0.3c0.2,0.1,0.4,0.2,0.6,0.3c-0.1-0.1-0.4-0.2-0.6-0.3
						c-0.3-0.1-0.6-0.2-0.9-0.3c-0.5,0.1-1.1,0.1-1.7,0.1c0.6-0.1,1.2-0.2,1.7-0.1c0.3,0,0.7,0,1-0.1c0.1,0,0.2,0,0.3-0.1
						c-1.3-0.2-2.7-0.1-4,0c-0.3,0-0.6,0.1-0.8,0.2c-1,0.3-1.9,0.5-2.6,0.2c-0.2,0.1-0.5,0.1-0.7,0.2l0.2,0c-0.1,0-0.2,0-0.3,0
						c-1,0.2-2,0.4-3,0.8c-0.6,0.4-1.2,0.8-1.8,1.1c0,0-0.1,0-0.3,0c-0.2,0-0.4,0-0.5,0c-0.2,0.3-0.5,0.6-0.9,0.8
						c0.6,0,1.1,0,1.6-0.1c0.7,0.1,1.1-1.2,2.1-0.8c-1-0.4-1.4,0.9-2.1,0.8c-0.5,0.1-1,0-1.6,0.1c-0.8,0.5-1.9,1-3,1.3
						c0.5-0.5,1-0.8,1.5-1c0.5-0.2,1-0.2,1.5-0.3c0.4-0.3,0.7-0.5,0.9-0.8c0.1,0,0.3,0,0.5,0c0.2,0,0.3,0,0.3,0
						c0.6-0.3,1.2-0.7,1.8-1.1c-1,0.3-1.9,0.6-2.9,1.1c-0.9,0.4-1.9,0.8-2.8,1.4c-3,1.6-5.6,3.7-7.7,6.2c-2.2,2.5-3.9,5.3-5.2,8.3
						c-2.4,6.1-2.9,13-1,19.7c2,7.3,6.4,13.3,12,17.8c2.8,2.2,5.9,4,9.3,5.2c1.7,0.6,3.4,1,5.2,1.4l2.7,0.3c0.9,0.1,1.8,0,2.7,0
						c3.6-0.1,7.2-0.8,10.7-2.2c3.4-1.4,6.6-3.5,9.3-6.2c2.1-2.1,4.3-5.7,5.6-9.5c1.4-3.8,2-7.6,2.2-10.3c0.3-7-0.2-3.4-0.2-3.1
						c-0.1,0.6-0.1,1.1-0.2,1.6c0,0.5-0.2,1-0.3,1.5c-0.1,0.5-0.2,1-0.3,1.6c-0.1,0.5-0.3,1.1-0.5,1.7c-0.7,2.3-1.8,5.2-4.7,8.3
						c0.9-1.1,1.3-1.4,1.2-1.2c-0.1,0.2-0.5,1-1.2,2c-0.4,0.5-0.8,1-1.3,1.6c-0.5,0.6-1.1,1.1-1.7,1.6c-0.6,0.5-1.3,1-2,1.4
						c-0.3,0.2-0.7,0.4-1,0.6c-0.3,0.2-0.7,0.3-1,0.4c-0.5,0.1-1,0.3-1.4,0.5c-0.5,0.2-1,0.3-1.5,0.4c-0.5,0.1-1,0.3-1.5,0.5
						c-0.5,0.1-1,0.3-1.5,0.4c-1,0.4-2,0.6-3.1,1c-0.5,0.2-1.1,0.3-1.6,0.4c-0.5,0.1-1.1,0.3-1.6,0.4c-1.1,0.2-2.2,0.5-3.4,0.6
						c-0.6,0.1-1.1,0.2-1.7,0.2l-1.8,0.1c-0.6,0.1-1.2,0-1.8,0c-0.6,0-1.2-0.1-1.8-0.1c-0.6-0.1-1.2-0.2-1.7-0.3l-0.9-0.1
						c-0.3-0.1-0.6-0.2-0.8-0.2c-0.5-0.2-1.1-0.3-1.7-0.4c-0.6-0.2-1.1-0.4-1.7-0.6c-0.3-0.1-0.6-0.2-0.9-0.3
						c-0.3-0.1-0.6-0.3-0.9-0.4c-0.6-0.3-1.2-0.6-1.8-0.9c-6.3-3.7-10.6-10.4-11.5-17.4c-0.5-3.5-0.1-7.1,0.8-10.5
						c0.9-3.4,2.5-6.6,4.6-9.5c2.2-3.1,4.2-5.7,6.7-7.8c0.5-0.4,1-0.6,1.5-0.9c0.5-0.3,1-0.6,1.6-0.8c1.1-0.4,2.1-0.8,3-1.1
						c1.4-0.5,2.7-0.9,4-1.3c1.3-0.3,2.5-0.7,3.8-0.9c-1.4,0.1-2.6,0.5-3.8,0.7c-0.6,0.2-1.2,0.4-1.8,0.6c-0.6,0.2-1.3,0.4-2,0.7
						c-1,0.3-0.7,0-0.1-0.5c0.3-0.3,0.8-0.6,1.2-0.8c0.5-0.2,0.9-0.5,1.2-0.6c0.3-0.2,0.7-0.1,1.1,0c0.4,0.1,0.8,0.2,1.1,0.1
						c0.6-0.1,1.2-0.3,1.9-0.5c0.6-0.1,1.3-0.3,2-0.5c0.6-0.2,0.5,0.6,0.8,0.5c0.9,0,1.8-0.3,2.6-0.5c0.8-0.2,1.5-0.2,2.1,0
						c0.9,0.2,1.7,0.6,2.5,0.9c0.5,0.2,1,0.3,1.5,0.5c0.3,0.1,0.7,0.1,1.1,0.2c-0.2-0.3-0.2-0.6-0.2-0.9c0.5,0.2,1.1,0.6,1.6,0.8
						c-0.5-0.2-1.1-0.6-1.6-0.8c0,0.3,0,0.6,0.2,0.9c2.6,0.5,5.6,1.5,8,3.1l0-0.1c-1.4-1-2.8-1.8-4.1-3c0.3,0.2,0.4,0.4,0.4,0.4
						c-0.1,0-0.3,0-0.7-0.2l-0.5-0.6c0.4,0.1,0.7,0.3,1.1,0.4c0.4,0.1,0.7,0.3,1,0.5c0.6,0.4,1.3,0.8,1.7,1.4c0,0,0.6,0.3,0.9,0.4
						c0.3,0.4,0.2,0.5,0.2,0.7c0.3,0.2,0.6,0.4,0.8,0.6C234.9,77.8,233.3,76.1,233.3,76.1z"/>
					<path class="st1" d="M216.5,70.9c0.2,0,0.5,0,0.8,0L216.5,70.9l-0.9-0.1l-1.7,0C214.6,71.2,215.5,71.1,216.5,70.9z"/>
				</g>
			</g>
		</g>
	</g>
</g>
</svg>
