<?xml version="1.0" encoding="utf-8"?>
<!-- Generator: Adobe Illustrator 19.2.1, SVG Export Plug-In . SVG Version: 6.00 Build 0)  -->
<svg version="1.1" id="Calque_1" xmlns="http://www.w3.org/2000/svg" xmlns:xlink="http://www.w3.org/1999/xlink" x="0px" y="0px"
	 viewBox="0 0 434.7 300" style="enable-background:new 0 0 434.7 300;" xml:space="preserve">
<style type="text/css">
	.st0{opacity:0.85;}
	.st1{fill:#1D1D1D;}
	.st2{fill:#FFFFFF;}
</style>
<g>
	<g>
		<g>
			<g class="st0">
				<g>
					<path class="st1" d="M223.7,252.9c-2.2,0-4.5,0-6.7-0.1c1.1,0,2.2,0.1,3.4,0.2C221.8,253.1,222.6,253,223.7,252.9z"/>
					<path class="st1" d="M210.8,252.8c-0.4,0-0.8,0-1.2,0c-0.4,0-0.7,0-1,0C209.3,252.8,210,252.8,210.8,252.8z"/>
					<path class="st1" d="M199.1,252.8c2.1,0,4,0,5.9,0C203.4,252.8,201.4,252.8,199.1,252.8z"/>
					<path class="st1" d="M208.4,253c-0.7-0.1-1.1-0.2,0.1-0.2c0,0,0,0,0,0c-1.2,0-2.3,0-3.5,0.1C206.3,252.9,207.4,252.9,208.4,253
						z"/>
					<path class="st1" d="M208.4,253c0.7,0.1,1.8,0.2,2.2,0.2C209.9,253.1,209.2,253.1,208.4,253z"/>
					<path class="st1" d="M205.5,254.8c-1.2,0.1-0.9-0.5-3.2-0.3c-5.5,0.2-10.1,0.5-15.2,0.5c-2.3,0.2-6-0.5-8.3-0.3
						c-5.5,0.2-19.4,1.2-11.2,1.1c12.4-0.3,20.4-0.5,31.5-0.7c9-0.3,17.7-0.7,26.9-0.9c2.6,0,5,0,7.4,0c-3.2,0-6.4-0.1-10-0.1
						C218.6,254,212.9,254.6,205.5,254.8z"/>
					<path class="st1" d="M273,253.4c-1.2,0-3.5,0-3.5,0c-5.2-0.1-10.7-0.2-16.1-0.1c0.8,0,1.6,0.1,2.4,0.1c3.1,0,3.5-0.1,0.7-0.1
						c6.4,0.2,12.4,0.2,18.5,0.2C274.6,253.5,274.7,253.4,273,253.4z"/>
					<path class="st1" d="M278.6,253.5c-1.2,0-2.4,0-3.6,0c0,0,0.1,0,0.1,0c1.2,0,2.4,0,3.6,0C278.7,253.5,278.6,253.5,278.6,253.5z
						"/>
					<path class="st1" d="M174.4,253.3c-15.5,0-30.1,0-44.3-0.1c-1.1,0.1-1.9,0.3-3.3,0.2c-1.1-0.1-2.2-0.2-3.3-0.3
						c-2.1,0-4.2,0-6.2,0c-0.7,0-1.5,0-2.2,0.1c0,0,0,0-0.1,0c-1.2,0.1-0.8,0.2-0.1,0.3c0.8,0.1,1.5,0.2,2.2,0.3
						c-0.4-0.1-1.5-0.2-2.2-0.3c-1-0.1-2.1-0.2-3.4-0.2c-1.9,0-3.9,0.1-5.9,0c2.3-0.1,4.2-0.1,5.9,0c1.2,0,2.4-0.1,3.5-0.1
						c0.3,0,0.7,0,1-0.1c-4.7,0-9.5-0.1-14.2-0.1c-1.1,0-2.1,0-3,0.1c-3.4,0.1-6.8,0.2-9-0.2c-0.8,0-1.6,0-2.4,0
						c0.1,0,0.3,0,0.4,0.1c-0.3,0-0.6,0-0.8-0.1l-2.3,0l-0.6,0c-0.1,0-0.2,0-0.2,0l0-0.3l0-1.2c0-1.6,0-3.3,0.1-4.9
						c-0.1-2.3-0.3-4.7-0.4-7.1c0,0,0.3-1.6,0.4-2.4c-0.2-1-0.3-2.4-0.4-4c-0.2,1.9-0.5,3.7-0.6,5.3c-0.4,2.4,0.8,5.4,0,8.2
						c0.7-2.8-0.4-5.8,0-8.2c0.2-1.6,0.4-3.4,0.6-5.3c-0.1-3.4,0-7.8,0.3-11.3c0.3,4.4,0,8.1-0.3,11.3c0.1,1.6,0.2,3,0.4,4
						c-0.1,0.8-0.4,2.4-0.4,2.4c0.1,2.4,0.3,4.8,0.4,7.1c0.1-7,0.1-14.1,0.2-21.3c0.2-23.3,0.2-45.7,0.1-68.3
						c-0.1-22.6-0.3-45.4-0.4-69.6c-0.1-13.1-0.1-25.9,0-38.6c0-6.3,0.1-12.6,0.1-18.8c0-1.6,0-3.1,0.1-4.7l0-2.3l0-0.6l0-0.3
						c0-0.2,0-0.4,0-0.5c2.8,0.1,5.6,0.1,8.4,0.2c24.6,0.5,48.1,1.3,71.7,1.6c11.8,0.1,23.6,0.2,35.6,0.3c3,0,6,0.1,9,0.1
						c1.5,0,3,0,4.5,0c0.2,0,0.3,0,0.5,0l0.2,0c0,0,0.1,0,0.1,0l0,0.1c0,0.2,0,0.3-0.1,0.5l0,0.1l0,0.1c0,0,0,0.2,0,0.2l0,1.1
						c0,1.5,0,3.1-0.1,4.6c0,3.1-0.1,6.2-0.1,9.3c-0.1,9,0.1,21.4,0.5,34.4h5.7c-0.4-14-1.1-28.8-1.6-38.5
						c-0.4-6.1-0.7-9.9-0.8-12.2c-0.2-2.2-0.2-2.9-0.3-2.8c-0.1,0.3-0.2,3.7-0.2,4.3c-0.2,6.8-0.5,13-0.7,20.5
						c-0.2,7.5-0.3,16.7-0.8,28.7h2.9c0.1-3,0.2-5.6,0.4-8.7c-0.5,10.5-0.6,6.6-0.6-2.4c0-9,0.3-23.1,1.1-33
						c0.2-1.8,0.3-3.6,0.4-5.5c0.1-1.7,0.1-3.3,0.2-5l0.1-1.3c0-0.2,0-0.5,0-0.6l-0.6,0c-0.9,0-1.7,0-2.6,0c-1.7,0-4-0.1-4.6-0.1
						c-1,0-2-0.1-3-0.1c-2-0.1-4.1-0.1-6.2-0.2c-8.4-0.2-17.4-0.3-26.5-0.2c-18.3,0.2-37.4,1-55.1,1.3c-8.9,0.2-18.3,0.5-28.9,0.8
						c-1.7,0-3.4,0.1-5.1,0.1l-2.6,0l-1.1,0l-1.2,0l-0.6,0l-0.3,0c-0.1,0,0,0.2,0,0.3l0,1.2c0,3.7,0.1,7.3,0.1,11
						c0.1,6.8,0.1,13.5,0.1,20.2c0,13.4-0.2,26.7-0.5,40.2c-0.6,26.8-1.4,54-1.8,82.9c-0.2,15.3,0.3,28.7,0.6,41.6
						c0,9.4-0.4,19.5-0.4,27.1c0,3.9,0,7.6,0,11.3c0,0.6,0,1.2,0,1.8l0,0.5c0,0.1,0.1,0,0.2,0.1l0.2,0l0.9,0c1.2,0,2.4,0,3.6,0
						c1.9,0,3.7,0,5.5-0.1c5.3-0.1,10.4-0.3,15.4-0.4c-5.5,0.1-10.3,0.2-15.3,0.2c-1.6,0-3.2,0-4.9,0.1c-1.1,0-2.2,0-3.3,0
						c-0.6,0-1.1,0-1.7,0l-0.4,0c-0.1-0.1,0-0.3,0-0.4l0-0.8c0-2.3,0-4.7,0-7c0-1.4,0-2.9,0-4.4c0-4.1,0.2-2.7,0.5,0.5
						c0.1,0.8,0.1,1.7,0.2,2.6c0,0.5,0.1,1,0.1,1.4c0,0.7,0.1,1.5,0.1,2.2c0,1.4,0.1,2.9,0.1,4.2c0,0.2,0,0.3,0,0.5l0,0.2
						c0,0.1,0.1,0,0.2,0c0.3,0,0.6,0,0.9,0c0.6,0,1.2,0,1.7-0.1c0.9,0,1.8,0,2.9,0c0.5,0,1,0.1,1.6,0.1c0.4,0,0.7,0.1,1.1,0.1
						c1.5,0.2,3,0.3,4.2,0.3c5.1,0,9.7-0.3,15.2-0.6c2.3-0.2,2.1,0.6,3.2,0.5c7.4-0.2,13.2-1.2,17.9-1c3.6,0.1,6.9,0.2,10,0.3
						c2,0,4,0.1,6.1,0c1.3-0.1,2.7-0.1,4-0.2c-1.1-0.2-1.5-0.5-1.8-0.7c2,0.1,4.7,0.1,6.7,0.2c-2-0.1-4.7-0.1-6.7-0.2
						c0.4,0.3,0.7,0.5,1.8,0.7c9.8-0.5,21.1-0.9,31.6-1.2c0,0-0.1,0-0.1-0.1c-6.1,0.1-12.1,0.1-18.5-0.4c2.8,0.1,2.4,0.3-0.7,0.4
						c-0.8-0.1-1.6-0.2-2.4-0.3c5.5-0.2,10.9-0.4,16.1,0.1c0,0,2.3-0.1,3.5-0.2c1.7,0.1,1.7,0.3,2,0.4c1.2,0,2.4,0,3.6-0.1
						C182.5,253.7,174.4,253.3,174.4,253.3z"/>
					<path class="st1" d="M111.3,253.2c0.8,0,1.9,0,3-0.1c-4,0-7.9-0.1-11.9-0.1C104.5,253.4,107.9,253.3,111.3,253.2z"/>
				</g>
			</g>
		</g>
	</g>
</g>
<g>
	<g>
		<g>
			<g class="st0">
				<g>
					<path class="st1" d="M242.8,86.2c-0.3-0.6-0.6-1.1-0.9-1.7c0.1,0.3,0.3,0.6,0.4,0.9C242.5,85.8,242.6,85.9,242.8,86.2z"/>
					<path class="st1" d="M241,83c-0.1-0.1-0.1-0.2-0.2-0.3c-0.1-0.1-0.1-0.2-0.2-0.2L241,83z"/>
					<path class="st1" d="M238.9,80.4c0.4,0.5,0.7,0.9,1.1,1.3C239.7,81.3,239.3,80.9,238.9,80.4z"/>
					<path class="st1" d="M240.4,82.6c-0.1-0.2-0.1-0.3,0.1-0.1c0,0,0,0,0,0c-0.2-0.3-0.4-0.5-0.6-0.8
						C240.2,82,240.3,82.3,240.4,82.6z"/>
					<path class="st1" d="M240.4,82.6c0.1,0.2,0.2,0.5,0.3,0.6C240.6,83,240.5,82.8,240.4,82.6z"/>
					<path class="st1" d="M238.8,82.8c-0.3-0.2,0.1-0.4-0.4-0.8c-0.6-0.5-1.1-0.9-1.7-1.3c-0.6-0.4-1.1-0.7-1.7-1.2
						c-0.5-0.3-1-1.3-1.6-1.6c-0.3-0.2-0.8-0.4-1.3-0.6c-0.5-0.2-1-0.3-1.5-0.4c-0.8-0.2-1.3-0.2-0.3,0.3c2.9,1.4,4.8,2.5,7.1,4.5
						C237.9,82.1,238.4,82.5,238.8,82.8l1.3,1.4c0.2,0.2,0.4,0.4,0.6,0.7l0.6,0.7c0.4,0.5,0.8,1,1.1,1.5c0.3,0.6,0.6,1.2,0.9,1.8
						c-0.2-0.4-0.4-0.8-0.6-1.2c-0.2-0.4-0.4-0.8-0.7-1.3c-0.3-0.6-0.8-1.2-1.3-1.8C240.2,84.1,239.5,83.5,238.8,82.8z"/>
					<path class="st1" d="M246.4,99.5c0-0.3-0.1-1-0.1-1c0-0.7-0.2-1.5-0.2-2.2c-0.1-0.4-0.1-0.8-0.2-1.1c-0.1-0.4-0.2-0.7-0.3-1.1
						c0,0.2,0.1,0.4,0.1,0.7c0.2,0.9,0.2,1,0.1,0.2c0.1,0.9,0.2,1.8,0.4,2.6c0.1,0.8,0.1,1.7,0.2,2.6
						C246.4,100,246.4,100,246.4,99.5z"/>
					<path class="st1" d="M246.5,101.1c0-0.3,0-0.7-0.1-1l0,0C246.4,100.5,246.4,100.8,246.5,101.1L246.5,101.1z"/>
					<path class="st1" d="M233.3,76.1c-3.7-2.4-7.6-4-11.5-4.8c-0.3,0.1-0.6,0.2-1,0.1c-0.3-0.2-0.6-0.3-0.9-0.4
						c-0.6-0.1-1.2-0.1-1.8-0.2c-0.2,0-0.4,0-0.6,0l0,0c-0.3,0.1-0.2,0.2,0,0.3c0.2,0.1,0.4,0.2,0.6,0.3c-0.1-0.1-0.4-0.2-0.6-0.3
						c-0.3-0.1-0.6-0.2-0.9-0.3c-0.5,0.1-1.1,0.1-1.7,0.1c0.6-0.1,1.2-0.2,1.7-0.1c0.3,0,0.7,0,1-0.1c0.1,0,0.2,0,0.3-0.1
						c-1.3-0.2-2.7-0.1-4,0c-0.3,0-0.6,0.1-0.8,0.2c-1,0.3-1.9,0.5-2.6,0.2c-0.2,0.1-0.5,0.1-0.7,0.2l0.2,0c-0.1,0-0.2,0-0.3,0
						c-1,0.2-2,0.4-3,0.8c-0.6,0.4-1.2,0.8-1.8,1.1c0,0-0.1,0-0.3,0c-0.2,0-0.4,0-0.5,0c-0.2,0.3-0.5,0.6-0.9,0.8
						c0.6,0,1.1,0,1.6-0.1c0.7,0.1,1.1-1.2,2.1-0.8c-1-0.4-1.4,0.9-2.1,0.8c-0.5,0.1-1,0-1.6,0.1c-0.8,0.5-1.9,1-3,1.3
						c0.5-0.5,1-0.8,1.5-1c0.5-0.2,1-0.2,1.5-0.3c0.4-0.3,0.7-0.5,0.9-0.8c0.1,0,0.3,0,0.5,0c0.2,0,0.3,0,0.3,0
						c0.6-0.3,1.2-0.7,1.8-1.1c-1,0.3-1.9,0.6-2.9,1.1c-0.9,0.4-1.9,0.8-2.8,1.4c-3,1.6-5.6,3.7-7.7,6.2c-2.2,2.5-3.9,5.3-5.2,8.3
						c-2.4,6.1-2.9,13-1,19.7c2,7.3,6.4,13.3,12,17.8c2.8,2.2,5.9,4,9.3,5.2c1.7,0.6,3.4,1,5.2,1.4l2.7,0.3c0.9,0.1,1.8,0,2.7,0
						c3.6-0.1,7.2-0.8,10.7-2.2c3.4-1.4,6.6-3.5,9.3-6.2c2.1-2.1,4.3-5.7,5.6-9.5c1.4-3.8,2-7.6,2.2-10.3c0.3-7-0.2-3.4-0.2-3.1
						c-0.1,0.6-0.1,1.1-0.2,1.6c0,0.5-0.2,1-0.3,1.5c-0.1,0.5-0.2,1-0.3,1.6c-0.1,0.5-0.3,1.1-0.5,1.7c-0.7,2.3-1.8,5.2-4.7,8.3
						c0.9-1.1,1.3-1.4,1.2-1.2c-0.1,0.2-0.5,1-1.2,2c-0.4,0.5-0.8,1-1.3,1.6c-0.5,0.6-1.1,1.1-1.7,1.6c-0.6,0.5-1.3,1-2,1.4
						c-0.3,0.2-0.7,0.4-1,0.6c-0.3,0.2-0.7,0.3-1,0.4c-0.5,0.1-1,0.3-1.4,0.5c-0.5,0.2-1,0.3-1.5,0.4c-0.5,0.1-1,0.3-1.5,0.5
						c-0.5,0.1-1,0.3-1.5,0.4c-1,0.4-2,0.6-3.1,1c-0.5,0.2-1.1,0.3-1.6,0.4c-0.5,0.1-1.1,0.3-1.6,0.4c-1.1,0.2-2.2,0.5-3.4,0.6
						c-0.6,0.1-1.1,0.2-1.7,0.2l-1.8,0.1c-0.6,0.1-1.2,0-1.8,0c-0.6,0-1.2-0.1-1.8-0.1c-0.6-0.1-1.2-0.2-1.7-0.3l-0.9-0.1
						c-0.3-0.1-0.6-0.2-0.8-0.2c-0.5-0.2-1.1-0.3-1.7-0.4c-0.6-0.2-1.1-0.4-1.7-0.6c-0.3-0.1-0.6-0.2-0.9-0.3
						c-0.3-0.1-0.6-0.3-0.9-0.4c-0.6-0.3-1.2-0.6-1.8-0.9c-6.3-3.7-10.6-10.4-11.5-17.4c-0.5-3.5-0.1-7.1,0.8-10.5
						c0.9-3.4,2.5-6.6,4.6-9.5c2.2-3.1,4.2-5.7,6.7-7.8c0.5-0.4,1-0.6,1.5-0.9c0.5-0.3,1-0.6,1.6-0.8c1.1-0.4,2.1-0.8,3-1.1
						c1.4-0.5,2.7-0.9,4-1.3c1.3-0.3,2.5-0.7,3.8-0.9c-1.4,0.1-2.6,0.5-3.8,0.7c-0.6,0.2-1.2,0.4-1.8,0.6c-0.6,0.2-1.3,0.4-2,0.7
						c-1,0.3-0.7,0-0.1-0.5c0.3-0.3,0.8-0.6,1.2-0.8c0.5-0.2,0.9-0.5,1.2-0.6c0.3-0.2,0.7-0.1,1.1,0c0.4,0.1,0.8,0.2,1.1,0.1
						c0.6-0.1,1.2-0.3,1.9-0.5c0.6-0.1,1.3-0.3,2-0.5c0.6-0.2,0.5,0.6,0.8,0.5c0.9,0,1.8-0.3,2.6-0.5c0.8-0.2,1.5-0.2,2.1,0
						c0.9,0.2,1.7,0.6,2.5,0.9c0.5,0.2,1,0.3,1.5,0.5c0.3,0.1,0.7,0.1,1.1,0.2c-0.2-0.3-0.2-0.6-0.2-0.9c0.5,0.2,1.1,0.6,1.6,0.8
						c-0.5-0.2-1.1-0.6-1.6-0.8c0,0.3,0,0.6,0.2,0.9c2.6,0.5,5.6,1.5,8,3.1l0-0.1c-1.4-1-2.8-1.8-4.1-3c0.3,0.2,0.4,0.4,0.4,0.4
						c-0.1,0-0.3,0-0.7-0.2l-0.5-0.6c0.4,0.1,0.7,0.3,1.1,0.4c0.4,0.1,0.7,0.3,1,0.5c0.6,0.4,1.3,0.8,1.7,1.4c0,0,0.6,0.3,0.9,0.4
						c0.3,0.4,0.2,0.5,0.2,0.7c0.3,0.2,0.6,0.4,0.8,0.6C234.9,77.8,233.3,76.1,233.3,76.1z"/>
					<path class="st1" d="M216.5,70.9c0.2,0,0.5,0,0.8,0L216.5,70.9l-0.9-0.1l-1.7,0C214.6,71.2,215.5,71.1,216.5,70.9z"/>
				</g>
			</g>
		</g>
	</g>
</g>
<g>
	<g>
		<g>
			<g class="st0">
				<g>
					<path class="st1" d="M251.7,210.9l-0.9-0.6c0.1,0.1,0.3,0.2,0.4,0.4C251.3,210.8,251.5,210.8,251.7,210.9z"/>
					<path class="st1" d="M249.9,209.7c-0.1,0-0.1-0.1-0.2-0.1c-0.1,0-0.1,0-0.2-0.1L249.9,209.7z"/>
					<path class="st1" d="M248.3,208.8c0.3,0.2,0.6,0.4,0.8,0.5C248.9,209.1,248.6,208.9,248.3,208.8z"/>
					<path class="st1" d="M249.5,209.7c-0.1-0.1-0.1-0.2,0.1-0.1l0,0c-0.2-0.1-0.3-0.2-0.5-0.3C249.2,209.4,249.4,209.5,249.5,209.7
						z"/>
					<path class="st1" d="M249.5,209.7c0.1,0.1,0.2,0.2,0.2,0.3C249.7,209.9,249.6,209.8,249.5,209.7z"/>
					<path class="st1" d="M248.5,210.5c-0.2-0.1,0-0.3-0.3-0.5c-0.8-0.4-1.6-0.6-2.3-1c-0.4-0.1-0.7-0.8-1-0.9
						c-0.8-0.3-3.1-0.9-1.9-0.3c1.8,0.9,3,1.4,4.6,2.2c1.4,0.6,2.7,1.1,4.1,1.8c0.4,0.2,0.7,0.4,1,0.6c-0.4-0.3-0.9-0.6-1.4-0.9
						C250.6,211.1,249.6,211,248.5,210.5z"/>
					<path class="st1" d="M258.4,215.3c-0.2-0.1-0.5-0.3-0.5-0.3c-0.7-0.5-1.4-1-2.2-1.4l0.3,0.3c0.4,0.3,0.5,0.3,0.1,0
						c0.8,0.6,1.7,1.1,2.5,1.6C258.6,215.5,258.6,215.5,258.4,215.3z"/>
					<path class="st1" d="M259.1,215.9c-0.2-0.1-0.3-0.2-0.5-0.3l0,0C258.8,215.7,259,215.8,259.1,215.9L259.1,215.9z"/>
					<path class="st1" d="M244.6,207c-2.2-1.3-4.2-2.5-6.1-3.8c-0.2,0-0.4,0-0.5-0.2c-0.1-0.2-0.2-0.3-0.4-0.4l-0.9-0.5
						c-0.1,0-0.2-0.1-0.3-0.2l0,0c-0.2,0-0.2,0-0.1,0.2c0.1,0.1,0.2,0.2,0.2,0.3c0-0.1-0.1-0.2-0.2-0.3c-0.1-0.1-0.2-0.3-0.4-0.4
						c-0.3-0.1-0.6-0.3-0.8-0.5c0.3,0.1,0.6,0.3,0.8,0.5c0.2,0.1,0.4,0.2,0.5,0.2c0.1,0,0.1,0,0.2,0c-0.6-0.4-1.3-0.8-1.9-1.3
						c-0.2-0.1-0.3-0.2-0.4-0.2c-0.5-0.2-1-0.5-1.2-0.8l-0.3-0.2c0,0,0,0.1,0,0.1c0,0-0.1-0.1-0.1-0.1c-0.5-0.3-1-0.6-1.5-1
						c-0.4-0.1-0.8-0.2-1.1-0.3c0,0-0.1-0.3-0.2-0.4c-0.2,0-0.4,0-0.7-0.1c0.2,0.3,0.4,0.6,0.5,0.8c0.2,0.4,1,0,1.2,0.7
						c-0.1-0.6-1-0.2-1.2-0.7c-0.2-0.2-0.3-0.5-0.5-0.8c-0.5-0.2-1.1-0.7-1.5-1.1c0.7,0.2,1.1,0.7,1.5,1.1c0.2,0.1,0.5,0.1,0.7,0.1
						c0.1,0.1,0.2,0.4,0.2,0.4c0.4,0.1,0.8,0.2,1.1,0.3c-1-0.6-1.9-1.2-2.9-1.9c-3.2-2.1-6.3-4-9.5-5.8l-1.2-0.7l-0.4-0.2l-0.2-0.1
						c-0.1,0,0-0.2,0-0.2c0-0.8,0-1.7-0.1-2.5c0-1.9-0.1-3.8-0.2-5.8c-0.1-4.3-0.1-8.4,0.3-12.4c0.3-4,0.9-7.8,1.1-11.7
						c0.1-1.9,0.2-3.8,0.2-5.8c0.1-1.9,0.2-3.9,0.3-6c0.2-3.1-0.8-8.9-1.4-11.9c-0.5-2-0.7-2.5-0.7-2.4c0,0-0.1,0.6-0.1,0.7
						c-0.2,1.2-0.4,2.3-0.5,3.8c-0.2,1.4-0.2,3.2-0.7,5.7c0.3-1.7,0.4-1.1,0.4,0.4c0,1.5-0.2,3.8-0.8,5.4c-0.8,2.3-1.1,5.2-1,8.2
						c0.1,3,0.7,6.1,0.9,9c0.1,1.4,0.4,3,0.5,4.7c0.3,4.5,0.3,8.8-0.1,13.2c-0.2,2.2-0.4,4.4-0.7,6.6c0,0.2-0.1,0.9-0.1,1.4
						l-0.1,0.8l0,0.4c0.1,0.1,0.2,0.1,0.3,0.2c0.5,0.3,0.9,0.6,1.4,0.9l0.3,0.2l0.2,0.1l0.3,0.3c0.9,0.7,1.9,1.3,2.8,2
						c2.1,1.4,4.1,2.2,6,3.2c1.3,0.8,2.6,1.9,3.6,2.5c1.7,1,3.2,1.8,4.7,2.4c-1.6-0.8-2.8-1.4-4.5-2.4c-1.2-0.7,1.1-0.1,2,0.3
						c0.4,0.1,0.6,0.9,1,1c0.7,0.4,1.5,0.6,2.3,1c0.4,0.1,0.1,0.5,0.3,0.6c1.1,0.5,2.2,0.4,2.8,0.9c0.5,0.4,0.9,0.7,1.3,1
						c0.3,0.2,0.5,0.4,0.9,0.5c0.2,0.1,0.4,0.1,0.6,0.2c-0.1-0.2,0-0.4,0-0.6c0.3,0.2,0.6,0.5,0.9,0.7c-0.3-0.2-0.6-0.5-0.9-0.7
						c0,0.2,0.1,0.4,0.2,0.6c1.5,0.6,3,1.3,5,2v0c-1-0.5-1.9-1-2.6-1.8c0.3,0.3,0.1,0.4-0.3,0.2l-0.3-0.4c0.8,0.3,1.6,0.7,2.2,1.4
						c0,0,0.4,0.1,0.6,0.2c0.2,0.2,0.1,0.3,0.1,0.4c0.2,0.1,0.3,0.2,0.5,0.3C245.6,207.9,244.6,207,244.6,207z"/>
					<path class="st1" d="M235.9,201.6c0.1,0.1,0.3,0.1,0.4,0.2l-1.6-1.1C234.8,201.2,235.4,201.4,235.9,201.6z"/>
				</g>
			</g>
		</g>
	</g>
</g>
<g>
	<line class="st2" x1="216.2" y1="190" x2="175.9" y2="220.9"/>
	<g>
		<g>
			<g class="st0">
				<g>
					<path class="st1" d="M179.5,218.7l0.4-0.3c-0.1,0-0.2,0-0.3,0.1C179.5,218.5,179.5,218.6,179.5,218.7z"/>
					<polygon class="st1" points="180.3,218.2 180.4,218.2 180.4,218.1 					"/>
					<path class="st1" d="M181,217.6c-0.1,0.1-0.3,0.2-0.4,0.3C180.7,217.8,180.8,217.8,181,217.6z"/>
					<path class="st1" d="M180.3,218c0.1,0,0.1,0,0.1,0.1l0,0l0.2-0.2C180.5,217.9,180.4,218,180.3,218z"/>
					<path class="st1" d="M180.3,218c-0.1,0-0.2,0-0.2,0C180.2,218,180.3,218,180.3,218z"/>
					<path class="st1" d="M179.8,216.9c0-0.1,0.2,0.2,0.3,0c0.3-0.4,0.4-0.7,0.7-1c0.1-0.2,0.6,0,0.6-0.2c0.3-0.4,0.7-1.5,0.2-1.1
						c-0.7,0.7-1,1.2-1.6,1.8c-0.4,0.6-0.8,1.2-1.3,1.7c-0.1,0.1-0.3,0.2-0.4,0.4c0.2-0.1,0.4-0.3,0.6-0.4
						C179.3,217.9,179.4,217.3,179.8,216.9z"/>
					<path class="st1" d="M176.3,220.7c0.1-0.1,0.2-0.2,0.2-0.2c0.4-0.2,0.7-0.4,1-0.7l-0.2,0c-0.2,0.2-0.2,0.2,0,0.1
						c-0.5,0.2-0.8,0.5-1.2,0.8C176.1,220.8,176.2,220.8,176.3,220.7z"/>
					<path class="st1" d="M175.9,220.9c0.1-0.1,0.1-0.1,0.2-0.2l0,0L175.9,220.9L175.9,220.9z"/>
					<path class="st1" d="M182.3,216.2c0.9-0.7,1.8-1.4,2.7-2c0-0.1,0-0.3,0.1-0.3c0.1,0,0.2,0,0.3,0l0.4-0.3l0.1-0.1l0,0
						c0-0.1,0-0.1-0.1-0.2c-0.1,0-0.2,0-0.2,0c0.1,0,0.2,0,0.2,0c0.1,0,0.2,0,0.3,0c0.1-0.1,0.2-0.2,0.3-0.3
						c-0.1,0.2-0.2,0.2-0.3,0.3l-0.2,0.2l0,0.1l0.9-0.6c0.1-0.1,0.1-0.1,0.2-0.2c0.2-0.2,0.3-0.4,0.6-0.3l0.2-0.1c0,0,0,0-0.1,0
						c0,0,0.1,0,0.1,0l0.7-0.4c0.1-0.2,0.2-0.4,0.3-0.6c0,0,0.2,0.1,0.3,0.1c0-0.1,0-0.3,0.1-0.4c-0.2,0-0.4-0.1-0.6-0.1
						c-0.3-0.1,0,0.7-0.5,0.4c0.5,0.2,0.2-0.5,0.5-0.4c0.2,0,0.4,0.1,0.6,0.1c0.1-0.2,0.5-0.4,0.8-0.3c-0.1,0.4-0.5,0.4-0.8,0.3
						c-0.1,0.1-0.1,0.2-0.1,0.4c-0.1,0-0.3-0.1-0.3-0.1c-0.1,0.2-0.2,0.4-0.3,0.6c0.4-0.3,0.9-0.6,1.4-0.9c1.5-1,2.8-2,4.2-3.1
						c1.3-1.1,2.6-2.3,4-3.4c1.5-1.3,3-2.4,4.7-3.3c1.7-0.9,3.4-1.5,5-2.5c1.5-0.9,3-2,4.7-2.9c1.2-0.8,2.8-3.1,3.5-4.5
						c0.4-1,0.5-1.3,0.5-1.3c0,0-0.3,0.1-0.3,0.1c-0.6,0.2-1.1,0.4-1.7,0.7c-0.6,0.3-1.3,0.7-2.5,1c0.8-0.2,0.7,0,0.1,0.4
						c-0.6,0.4-1.5,0.9-2.4,0.9c-1.4,0-2.6,0.6-3.6,1.6c-1,1-1.8,2.3-2.8,3.2c-0.5,0.5-0.9,1.1-1.4,1.7c-1.5,1.5-3.1,2.7-4.9,3.6
						c-1.9,0.9-3.8,1.8-5.7,2.9c-1,0.6-1.6,1.5-2.3,2.2c-0.5,0.5-1.3,0.7-1.8,1c-0.8,0.5-1.3,1.1-1.7,1.8c0.6-0.6,1-1.1,1.7-1.7
						c0.5-0.4,0,0.8-0.2,1.1c-0.1,0.2-0.6-0.1-0.7,0.1c-0.3,0.2-0.4,0.6-0.7,1c-0.1,0.2-0.4-0.2-0.4-0.1c-0.4,0.4-0.3,1.2-0.7,1.4
						c-0.3,0.1-0.5,0.2-0.7,0.3c-0.1,0.1-0.3,0.2-0.4,0.3l-0.2,0.3c0.2,0.1,0.3,0.2,0.4,0.3c-0.1,0.1-0.4,0.1-0.5,0.2
						c0.1-0.1,0.4-0.1,0.5-0.2c-0.1-0.1-0.3-0.2-0.4-0.3c-0.4,0.7-0.9,1.4-1.4,2.1l0,0c0.3-0.3,0.7-0.6,1.3-0.7
						c-0.2,0-0.3-0.1-0.1-0.2l0.3,0.1c-0.2,0.4-0.5,0.7-1,0.7c0,0-0.1,0.2-0.1,0.3c-0.1,0-0.2-0.1-0.3-0.1c-0.1,0.1-0.1,0.1-0.2,0.2
						C181.6,216.4,182.3,216.2,182.3,216.2z"/>
					<path class="st1" d="M186.1,213.3c0,0.1-0.1,0.1-0.2,0.2l0.8-0.5C186.4,212.9,186.2,213.1,186.1,213.3z"/>
				</g>
			</g>
		</g>
	</g>
</g>
<g>
	<g>
		<g>
			<g class="st0">
				<g>
					<path class="st1" d="M199.2,96.2L199.2,96.2C199.3,96.1,199.3,96.2,199.2,96.2C199.2,96.2,199.2,96.2,199.2,96.2z"/>
					<path class="st1" d="M199.4,96L199.4,96L199.4,96C199.4,96,199.4,96,199.4,96z"/>
					<path class="st1" d="M199.5,95.8C199.5,95.9,199.5,95.9,199.5,95.8C199.5,95.9,199.5,95.9,199.5,95.8z"/>
					<path class="st1" d="M199.4,96C199.4,96,199.4,96,199.4,96L199.4,96C199.5,96,199.5,96,199.4,96C199.4,96,199.4,96,199.4,96z"
						/>
					<path class="st1" d="M199.4,96C199.4,96,199.3,96,199.4,96C199.3,96,199.4,96,199.4,96z"/>
					<path class="st1" d="M198.9,95.6c0,0,0.1,0.1,0.1,0c0-0.1,0-0.3,0-0.3c0-0.1,0.2,0,0.2-0.1c0-0.1-0.1-0.5-0.2-0.4
						c-0.1,0.2-0.1,0.4-0.1,0.6c0,0.2,0,0.4,0,0.6c0,0,0,0.1-0.1,0.1l0.1-0.1C199,95.9,198.9,95.7,198.9,95.6z"/>
					<path class="st1" d="M198.6,96.9C198.6,96.9,198.6,96.9,198.6,96.9c0.1-0.1,0.2-0.2,0.2-0.3l-0.1,0c0,0.1,0,0.1,0,0
						C198.7,96.7,198.6,96.8,198.6,96.9C198.5,96.9,198.5,96.9,198.6,96.9z"/>
					<path class="st1" d="M198.5,97C198.5,97,198.5,97,198.5,97L198.5,97L198.5,97L198.5,97z"/>
					<path class="st1" d="M199.7,95.4c0.2-0.3,0.3-0.5,0.5-0.7c0,0-0.1-0.1,0-0.1c0,0,0.1,0,0.1,0l0.3-0.1c0,0,0.2,0,0.2,0v0
						c0,0-0.2-0.1-0.3-0.1c0,0-0.2,0-0.2,0c0,0,0,0,0.1,0c0,0,0,0,0.1,0c0,0,0-0.1,0-0.1c0,0.1,0,0.1-0.1,0.1c0,0,0,0.1,0,0.1l0,0
						l0.2-0.2c0,0,0,0,0-0.1c0-0.1,0-0.1,0.1-0.1l0,0l0,0l0,0l0.1-0.2c0-0.1,0-0.1,0-0.2c0,0,0.1,0,0.1,0c0-0.1-0.1-0.1-0.1-0.1
						c-0.1,0-0.2,0-0.2,0c-0.1,0,0.2,0.2-0.1,0.1c0.2,0.1-0.1-0.2,0.1-0.1c0.1,0,0.1,0,0.2,0c0-0.1,0.1-0.1,0.2-0.1
						c0,0.1-0.1,0.1-0.2,0.1c0,0,0,0.1,0.1,0.1c0,0-0.1,0-0.1,0c0,0.1,0,0.1,0,0.2l0.3-0.3c0.6-0.7,1-1.4,1.4-2.3
						c0.3-0.4,0.5-0.8,0.9-1.1c0.4-0.3,0.9-0.5,1.2-0.9c0.3-0.3,0.6-0.7,1-1c0.2-0.1,0.2-0.4,0.2-0.7c0-0.2,0-0.3,0-0.4
						c0-0.2,0-0.3-0.1-0.4c-0.1-0.3-0.1-0.4-0.1-0.4c0,0-0.1,0-0.1,0c-0.1,0.1-0.3,0.1-0.4,0.2c-0.2,0.1-0.3,0.3-0.7,0.4
						c0.2-0.1,0.2,0,0.1,0.1c-0.1,0.1-0.3,0.3-0.7,0.3c-0.5,0-0.8,0.2-0.9,0.5c-0.1,0.3-0.1,0.8-0.2,1.1c-0.1,0.2-0.1,0.4-0.1,0.6
						c-0.3,1.1-1.4,1.5-2.3,2.3c-0.2,0.2-0.2,0.5-0.3,0.8c-0.1,0.2-0.3,0.2-0.4,0.4c-0.1,0.2-0.2,0.4-0.2,0.6
						c0.1-0.2,0.1-0.4,0.2-0.6c0.1-0.1,0.2,0.3,0.2,0.4c0,0.1-0.3,0-0.2,0c-0.1,0.1,0,0.2,0,0.4c0,0.1-0.2-0.1-0.2,0
						c0,0.2,0.2,0.4,0.1,0.5l-0.2,0.1c0,0-0.1,0.1-0.1,0.1l0,0.1c0.1,0,0.1,0.1,0.2,0.1c0,0-0.1,0-0.1,0.1c0,0,0.1,0,0.1-0.1
						c-0.1,0-0.2-0.1-0.2-0.1c0,0.2,0,0.5,0,0.7l0,0c0-0.1,0.1-0.2,0.3-0.2c-0.1,0-0.1,0-0.1-0.1l0.1,0c0,0.1,0,0.2-0.2,0.2
						c0,0,0,0.1,0,0.1c0,0-0.1,0-0.1-0.1c0,0,0,0,0,0.1C199.5,95.4,199.7,95.4,199.7,95.4z"/>
					<path class="st1" d="M200.4,94.4C200.4,94.4,200.4,94.4,200.4,94.4l0.1-0.1C200.4,94.2,200.4,94.3,200.4,94.4z"/>
				</g>
			</g>
		</g>
	</g>
</g>
<g>
	<g>
		<g>
			<g class="st0">
				<g>
					<path class="st1" d="M206.8,96l-0.1-0.1C206.7,95.9,206.7,95.9,206.8,96C206.7,96,206.8,96,206.8,96z"/>
					<polygon class="st1" points="206.6,95.7 206.6,95.7 206.6,95.7 					"/>
					<path class="st1" d="M206.4,95.6C206.5,95.6,206.5,95.6,206.4,95.6C206.5,95.6,206.5,95.6,206.4,95.6z"/>
					<path class="st1" d="M206.5,95.8C206.5,95.7,206.6,95.7,206.5,95.8L206.5,95.8C206.6,95.7,206.5,95.7,206.5,95.8
						C206.5,95.7,206.5,95.7,206.5,95.8z"/>
					<path class="st1" d="M206.5,95.8C206.5,95.8,206.5,95.8,206.5,95.8C206.5,95.8,206.5,95.8,206.5,95.8z"/>
					<path class="st1" d="M206,96.1c0,0,0.1-0.1,0-0.1c-0.1,0-0.3,0-0.4-0.1c-0.1,0,0-0.2,0-0.2c-0.1,0-0.6,0-0.4,0.1
						c0.2,0.2,0.4,0.2,0.7,0.3c0.2,0.1,0.4,0.1,0.6,0.2c0,0,0.1,0.1,0.1,0.1l-0.1-0.2C206.5,96.1,206.2,96.2,206,96.1z"/>
					<path class="st1" d="M207.4,96.9C207.4,96.9,207.4,96.8,207.4,96.9c-0.1-0.2-0.2-0.3-0.3-0.3l0,0.1c0.1,0,0.1,0,0,0
						C207.2,96.7,207.3,96.8,207.4,96.9C207.4,96.9,207.4,96.9,207.4,96.9z"/>
					<path class="st1" d="M207.5,97C207.5,97,207.4,97,207.5,97L207.5,97L207.5,97L207.5,97z"/>
					<path class="st1" d="M205.9,95.3c-0.2-0.2-0.5-0.5-0.7-0.7c-0.1,0-0.1,0-0.1,0c0,0,0-0.1,0-0.1l-0.1-0.3l0-0.2h0
						c0,0-0.1,0.2-0.1,0.2c0,0,0,0.1,0,0.2c0,0,0,0,0-0.1c0,0,0-0.1,0-0.1c0,0-0.1,0-0.1-0.1c0.1,0,0.1-0.1,0.1-0.1
						c0,0,0.1-0.1,0.1-0.1h0l-0.2-0.1c0,0,0,0-0.1,0c-0.1,0-0.2,0-0.1-0.1l0,0l0,0l0,0l-0.1-0.2c-0.1,0-0.2,0-0.2,0
						c0,0,0-0.1,0.1-0.1c-0.1,0-0.1,0-0.2,0c0,0.1-0.1,0.2-0.1,0.2c-0.1,0.1,0.3-0.1,0.1,0.1c0.1-0.2-0.2,0-0.1-0.1
						c0-0.1,0-0.1,0.1-0.2c-0.1,0-0.1-0.1-0.1-0.3c0.1,0,0.1,0.1,0.1,0.3c0,0,0.1,0,0.2,0c0,0-0.1,0.1-0.1,0.1c0.1,0,0.1,0,0.2,0
						l-0.3-0.4c-0.6-0.8-1.4-1.4-2.2-2.2c-0.4-0.4-0.8-0.8-1.1-1.3c-0.2-0.5-0.4-1.1-0.7-1.5c-0.3-0.5-0.6-0.9-0.9-1.3
						c-0.1-0.2-0.4-0.3-0.7-0.4c-0.2-0.1-0.3-0.1-0.5-0.2c-0.2,0-0.3-0.1-0.5-0.1c-0.4,0-0.5,0-0.5,0c0,0,0,0.1,0,0.1
						c0.1,0.2,0.1,0.3,0.2,0.5c0.1,0.2,0.2,0.4,0.3,0.8c0-0.3,0.1-0.3,0.2-0.1c0.1,0.2,0.3,0.4,0.2,0.8c-0.1,0.5,0.1,0.9,0.4,1.1
						c0.3,0.2,0.8,0.4,1.2,0.6c0.2,0.1,0.4,0.2,0.6,0.3c1.1,0.6,1.4,1.9,2,3.1c0.2,0.3,0.5,0.4,0.8,0.5c0.2,0.1,0.2,0.4,0.3,0.5
						c0.2,0.2,0.4,0.3,0.6,0.4c-0.2-0.1-0.4-0.2-0.6-0.4c-0.1-0.1,0.3-0.1,0.5-0.1c0.1,0-0.1,0.3,0,0.3c0.1,0.1,0.2,0.1,0.4,0.1
						c0.1,0-0.1,0.2-0.1,0.2c0.2,0.1,0.5-0.1,0.5,0.1l0.1,0.2c0,0,0,0.1,0.1,0.1l0.1,0c0-0.1,0.1-0.1,0.2-0.2c0,0,0,0.1,0.1,0.2
						c0,0,0-0.1-0.1-0.2c-0.1,0.1-0.1,0.1-0.2,0.2c0.3,0,0.5,0.1,0.8,0.2l0,0c-0.1-0.1-0.2-0.2-0.2-0.4c0,0.1,0,0.1-0.1,0.1l0-0.1
						c0.1,0,0.3,0.1,0.2,0.3c0,0,0.1,0,0.1,0c0,0,0,0.1-0.1,0.1c0,0,0,0,0.1,0C206,95.5,205.9,95.3,205.9,95.3z"/>
					<path class="st1" d="M205,94.3C205,94.3,205,94.3,205,94.3l-0.1-0.2C204.8,94.2,204.9,94.2,205,94.3z"/>
				</g>
			</g>
		</g>
	</g>
</g>
</svg>
